<?xml version="1.0" encoding="UTF-8" standalone="no"?>
<!-- Created with Inkscape (http://www.inkscape.org/) -->

<svg
   xmlns:dc="http://purl.org/dc/elements/1.1/"
   xmlns:cc="http://creativecommons.org/ns#"
   xmlns:rdf="http://www.w3.org/1999/02/22-rdf-syntax-ns#"
   xmlns:svg="http://www.w3.org/2000/svg"
   xmlns="http://www.w3.org/2000/svg"
   xmlns:sodipodi="http://sodipodi.sourceforge.net/DTD/sodipodi-0.dtd"
   xmlns:inkscape="http://www.inkscape.org/namespaces/inkscape"
   width="210mm"
   height="330mm"
   viewBox="0 0 744.09449 1169.2913"
   id="svg2"
   version="1.1"
   inkscape:version="0.91 r"
   sodipodi:docname="aral-sea.svg">
  <defs
     id="defs4" />
  <sodipodi:namedview
     id="base"
     pagecolor="#ffffff"
     bordercolor="#666666"
     borderopacity="1.0"
     inkscape:pageopacity="0.0"
     inkscape:pageshadow="2"
     inkscape:zoom="0.24748737"
     inkscape:cx="144.91039"
     inkscape:cy="607.13812"
     inkscape:document-units="cm"
     inkscape:current-layer="layer1"
     showgrid="false"
     inkscape:window-width="960"
     inkscape:window-height="1031"
     inkscape:window-x="958"
     inkscape:window-y="0"
     inkscape:window-maximized="0" />
  <metadata
     id="metadata7">
    <rdf:RDF>
      <cc:Work
         rdf:about="">
        <dc:format>image/svg+xml</dc:format>
        <dc:type
           rdf:resource="http://purl.org/dc/dcmitype/StillImage" />
        <dc:title></dc:title>
      </cc:Work>
    </rdf:RDF>
  </metadata>
  <g
     inkscape:label="Layer 1"
     inkscape:groupmode="layer"
     id="layer1"
     transform="translate(0,116.92913)">
    <path
       inkscape:connector-curvature="0"
       style="opacity:1;fill:#ffe680;fill-opacity:0.99215686;stroke:#ff5555;stroke-width:2;stroke-linecap:butt;stroke-miterlimit:4;stroke-dasharray:none;stroke-dashoffset:0"
       d="m 71.229441,753.91876 0,269.76954 276.009759,0 0,-269.76954 -276.009759,0 z m 196.537109,27.0175 64.19531,0 0,33.0547 -64.19531,0 0,-33.0547 z m -65.9082,9.0782 c 1.2588,-0.062 4.26619,1.7407 4.46679,1.9414 1.2549,1.2548 5.43416,0.3547 7.00196,1.1386 0.7759,0.3879 1.11438,0.7421 0.48828,1.793 -0.8279,3.3113 -4.6376,12.3375 0,14.6563 2.5469,1.2734 6.03744,0.01 8.63086,1.3007 1.33378,0.6669 6.24051,0.277 7.16601,-0.6484 1.0978,-1.0977 -1.60616,-2.9543 -0.97656,-3.584 1.7641,-1.7641 4.58672,-3.1478 5.69922,-5.373 0.9383,-1.8763 -0.69896,-5.758 1.46484,-6.8399 4.81209,-2.4061 5.33314,2.1172 6.83984,2.1172 1.3613,0 4.07032,-1.6876 4.07032,-0.3262 0,4.2639 -10.06378,12.8335 -12.86328,15.6329 -3.4208,3.421 -2.20445,11.8503 -6.83985,14.1679 -1.177,0.5895 -2.24532,0.065 -3.41992,0.65239 -2.0586,1.0292 -2.89274,2.4229 -5.21094,3.582 -2.3718,1.1858 -4.32109,0.411 -6.02539,2.1152 -0.7147,0.7148 5.72551,6.6233 4.07031,9.9336 -1.09,2.1799 -2.12777,5.5623 -2.76757,6.8418 -0.1844,0.3689 -2.02753,0.053 -2.76953,2.2793 -2.0153,6.0458 3.05093,15.0571 5.04882,19.0528 1.5277,3.0556 1.04237,7.2957 2.60547,10.4218 0.7999,1.6001 2.29364,1.9818 2.93164,3.2578 0.8159,1.6315 -3.94533,4.5214 -1.30273,7.1641 2.7337,2.7336 4.93364,-7.177 5.21094,2.2813 0,3.7842 0.65118,8.1432 2.92968,10.4218 0.8749,0.8749 3.36514,0.4295 4.39844,1.4629 0.4443,0.4441 -0.98048,2.7636 -0.48828,3.7481 1.2532,2.5066 3.29642,4.0297 0.32422,7.0019 -2.9861,2.986 -6.47239,-0.7037 -10.58399,0.3242 -3.1321,0.783 -5.24716,1.403 -7.98046,2.7696 -1.9081,0.9541 -9.16352,5.597 -7.97852,6.1894 3.9448,1.9721 -1.28081,4.2742 -0.16211,6.5117 0.09,0.1804 5.12869,1.7112 4.39649,2.4434 -0.075,0.074 -4.75999,0.5278 -6.02539,1.793 -0.4576,0.4576 -3.23262,4.2304 -3.25782,4.2304 -1.0682,0 -4.2659,-2.2457 -2.4414,-4.0703 0.7944,-0.7943 2.93124,-1.4664 3.74414,-2.2793 0.9566,-0.9564 -1.50141,-2.0989 -2.44141,-1.6289 -3.9061,1.953 -2.88712,2.7251 -5.69922,5.5371 -1.8559,1.8562 3.94945,3.0523 3.09375,3.9082 -1.1859,1.1858 -1.55207,4.1594 -2.60547,5.2129 -0.6384,0.6382 -1.47695,-1.5428 -2.28125,-1.1406 -0.4164,0.2082 -2.76378,2.6007 -2.92968,2.9316 -0.3338,0.6677 0.78201,1.6901 0.32421,2.6055 -0.9391,1.8784 -1.31596,6.5271 -2.60546,7.8164 -1.5767,1.5769 -4.71303,0.797 -5.86133,3.0938 -0.6208,1.2415 -0.33723,4.40745 -1.14063,5.21095 -0.1864,0.1864 -1.51172,-4.51385 -3.41992,-2.6055 -0.5005,0.5005 -1.27191,7.0039 -1.79101,7.0039 -1.2614,0 -0.89812,-7.8157 -3.25782,-3.0957 -0.5701,1.1399 -0.88221,1.2083 -1.79101,2.1172 -1.3045,1.3044 -4.20595,2.0909 -5.37305,3.2578 -0.9353,0.9355 0.6123,4.6387 0,5.8633 -1.3278,2.6557 -1.81629,4.4198 -3.74609,6.3496 -3.793,3.7929 -4.61938,-3.8474 -6.51368,-1.9531 -0.3632,0.3631 -0.30721,4.9763 -1.79101,4.2344 -0.8844,-0.4422 -1.54799,-2.0381 -2.11719,-2.6074 -0.5038,-0.5036 -1.30273,-1.5455 -1.30273,-2.4414 0,-7.4899 8.05635,-0.04 10.91015,-1.4668 1.0321,-0.5158 1.66312,-2.375 0.97852,-3.7442 -1.9128,-3.8254 -4.48811,-0.5776 -7.00391,-3.0937 -0.5542,-0.5539 -0.38337,-2.0143 -1.13867,-2.7696 -1.0495,-1.0495 -7.29592,-0.6182 -8.79492,-2.1171 -1.4595,-1.4595 -3.59837,-4.6739 -2.60547,-7.65245 0.2789,-0.8367 1.35484,-3.2057 0.65234,-3.9082 -0.301,-0.301 -7.23827,1.627 -8.14257,1.627 -1.51,0 -9.03828,-1.7119 -9.77148,-0.9786 -0.5213,0.5213 -0.73067,5.29685 -2.60547,3.4219 -2.8316,-2.8316 -4.17506,-7.8679 -8.63086,-10.0957 -1.1313,-0.5658 -5.35487,-1.8108 -6.51367,-0.6523 -0.3925,0.3927 -0.052,1.2399 -0.32617,1.789 -1.9472,3.8942 8.71736,1.0561 6.35156,3.4219 -2.8806,2.8806 -13.3508,11.31875 -17.750009,9.11915 -2.4673,-1.2337 -2.4131,-4.49325 -3.9082,-6.83985 -0.4113,-2.0563 4.72265,-14.7451 4.72265,-20.3555 0,-1.8804 -3.07883,-4.3797 -4.39843,-5.6992 -0.9894,-0.9895 -0.99492,-3.1121 -1.79102,-3.9082 -0.3739,-0.3745 -0.44631,-15.3502 -0.16211,-15.6348 1.154,-1.1537 3.74215,-3.4097 4.56055,-5.0468 0.6353,-1.2703 -5.75246,-12.8935 -0.65235,-16.2832 2.2939,-4.5878 8.463609,-20.3542 11.562509,-23.4532 0.7777,-0.7777 1.95518,-1.3027 2.76758,-2.1152 0.3257,-0.3258 -0.3256,-1.6295 0,-1.9551 1.2977,-1.2977 2.39236,-6.4606 2.44336,-6.5117 1.8631,-1.8631 3.27133,-5.3906 5.04883,-7.168 1.4217,-1.4211 -0.12886,-5.8945 1.46484,-7.4882 1.9286,-1.9286 3.05784,-5.501 5.21094,-7.6543 1.1819,-1.1817 3.34339,-2.2047 4.39649,-3.2578 0.771,-0.7715 2.99209,0.918 3.74609,0.164 0.4877,-0.4877 4.94222,-5.3194 7.16602,-3.0957 0.8919,0.892 0.94497,4.4143 4.23436,2.7695 1.9397,-0.9699 4.78635,-3.0957 7.00195,-3.0957 7.1885,0 -4.09952,9.7968 -4.88672,10.584 -0.8149,0.8151 -0.48828,3.087 -0.48828,4.3985 0,0.8136 -0.17012,1.4598 0.48828,1.789 0.8247,0.4124 2.38401,-0.4883 3.09571,-0.4883 3.2266,0 7.18989,-1.6764 8.46679,-4.2304 0.7066,-1.4133 0.17304,-2.4562 1.30274,-3.586 0.8012,-0.8019 2.69652,-0.2513 3.41992,-0.9746 1.2984,-1.2986 -3.20549,-4.503 -2.11719,-6.6797 0.8966,-1.7932 3.90575,-4.0759 3.09375,-6.51169 -0.845,-2.5348 -4.51402,-9.3706 -4.23242,-9.9336 0.6316,-1.2634 3.03441,-1.1684 4.07031,-0.6504 1.5788,0.7893 3.71115,0.3097 5.37305,1.1407 5.41,2.705 3.23399,8.8731 3.74609,14.98039 3.96521,0 7.18611,-2.1374 9.28321,-4.23429 0.011,-0.011 15.47601,0.1692 15.63281,0.3261 1.4653,1.46529 8.95019,7.33309 12.21289,4.07029 1.1593,-1.1592 2.50499,-2.3389 3.58399,-3.4179 0.7532,-0.75319 0.062,-10.22789 -0.97852,-10.74809 -2.067,-1.0335 -7.27823,5.7452 -9.76953,3.2539 -1.5711,-1.571 -4.37956,-4.5473 -6.35156,-5.5332 -2.9952,-1.4977 -6.85852,3.5615 -9.60742,0.8125 -1.9253,-1.9252 -3.55838,-4.2068 -5.70118,-6.3496 -0.6586,-0.6585 -0.32422,-1.7839 -0.32422,-2.6054 0,-6.6513 9.40497,-7.8803 14.16797,-10.2618 0.3427,-0.1713 1.19732,-1.4061 1.79102,-0.8125 2.5632,2.5632 0.51712,10.2886 1.95312,11.7246 0.66201,0.6621 3.06453,-4.8573 3.41993,-5.2129 0.2216,-0.2212 2.62363,2.2993 2.76953,2.4454 2.1469,2.1469 7.12173,-2.8492 7.49023,-3.586 1.0585,-2.1172 -9.39763,-7.698 -7.49023,-9.6054 0.095,-0.095 0.23807,-0.1415 0.41797,-0.1504 z m 87.6289,28.9668 c 1.9373,0.4013 3.12124,1.5298 3.80273,2.7851 0.84951,1.6088 0.9375,3.3946 0.9375,4.1543 l 0,18.67969 c 0,1.2066 -0.045,3.1275 -0.89453,4.7363 -0.8491,1.6535 -2.36745,3.041 -5.40625,3.041 -3.0389,0 -4.5591,-1.3875 -5.4082,-3.041 -0.8491,-1.6088 -0.89453,-3.5297 -0.89453,-4.7363 l 0,-2.0547 4.82812,0 c 0,2.1897 0.044,3.6197 0.22266,4.4688 0.1787,0.8491 0.53685,1.1601 1.25195,1.1601 0.581,0 0.98353,-0.2666 1.20704,-0.8476 0.1784,-0.5809 0.26757,-1.4753 0.26757,-2.7266 l 0,-2.5937 0.0859,0 0,-23.02539 z m -16.80469,0.1933 2.90625,0 0,32.84569 -4.82617,0 0,-25.74219 -3.21875,0 0,-3.0839 c 2.011,-0.4022 3.21916,-1.4305 4.06836,-2.3243 0.4469,-0.5362 0.80221,-1.1144 1.07031,-1.6953 z m 26.125,0 12.1543,0 0,4.8242 -4.82617,28.02149 -5.00586,0 4.91601,-28.06439 -7.23828,0 0,-4.7813 z m 15.8086,0 12.15429,0 0,4.8242 -4.82617,28.02149 -5.00586,0 4.91797,-28.06439 -7.24023,0 0,-4.7813 z m -29.12305,0.037 0,19.83989 c -1.5655,-0.405 -2.5064,-1.435 -3.0625,-2.5821 -0.7152,-1.4747 -0.80664,-3.2644 -0.80664,-4.1582 l 0,-6.39059 c 0,-0.7597 0.09,-2.5455 0.93945,-4.1543 0.5773,-1.0637 1.47939,-2.0358 2.92969,-2.5547 z m -17.36914,38.85349 63.47851,0 0,143.95905 -63.47851,0 0,-143.95905 z"
       id="rect6760-9-3-4" />
    <path
       inkscape:connector-curvature="0"
       style="opacity:1;fill:#ffe680;fill-opacity:0.99215686;stroke:#ff5555;stroke-width:2;stroke-linecap:butt;stroke-miterlimit:4;stroke-dasharray:none;stroke-dashoffset:0"
       d="m 70.865597,464.77588 0,269.76952 276.009773,0 0,-269.76952 -276.009773,0 z m 196.685553,27.1211 63.89648,0 0,69.6269 -63.89648,0 0,-69.6269 z m -65.49609,9.9531 c 1.4783,0.051 3.19846,0.4137 3.66406,0.6465 1.0694,0.5347 2.50825,0.677 3.68555,1.2656 1.177,0.5886 2.78021,0.5928 3.57031,1.3828 2.0136,2.0136 -4.10227,6.8792 -2.76367,9.5566 2.3811,4.762 4.74288,7.9454 10.70898,7.9454 0.3438,0 2.07072,0.2321 2.30274,0 0.7896,-0.7894 2.64889,-0.1158 3.68359,-1.1504 1.2439,-1.244 1.03379,-4.3716 2.30469,-5.6426 1.9955,-1.9954 4.76663,-2.8095 6.67773,-4.7207 1.0079,-1.0078 -3.72551,-2.5097 1.49609,-5.6426 2.3609,-0.8137 4.79491,1.7694 2.87891,3.6856 -0.4176,0.4176 -1.22139,0.3725 -1.49609,0.9218 -0.6896,1.3794 2.56024,0.025 2.99414,0.459 0.6327,0.6326 0.47626,3.0939 -0.11524,3.6856 -2.6497,2.6496 -5.35637,4.4345 -7.83008,6.9082 -0.754,0.7541 -3.53485,0.5052 -4.03124,1.498 -0.5499,1.0998 1.26757,2.9319 1.26757,4.2598 0,2.9174 -2.9457,7.4379 -4.7207,9.2129 -0.5251,0.525 -1.86604,0.4134 -2.64844,0.8047 -3.7773,1.8886 -8.62042,3.0932 -10.82422,5.2968 -1.6853,1.6855 0.45219,5.1682 1.15039,6.5645 0.7039,1.4077 -1.28569,4.6458 -1.84179,5.7578 -1.1685,2.3372 -3.43157,2.7404 -4.95117,4.2598 -0.4839,0.4841 -0.56608,2.5129 -0.92188,3.2246 -0.1849,0.3699 -1.38086,1.1184 -1.38086,1.4961 0,2.0481 -0.46676,5.975 0.46094,7.83 1.3805,2.7608 2.5332,7.6118 2.5332,10.709 0,1.2011 -2.50364,1.9729 -0.46094,2.9942 2.8621,1.4311 2.76368,1.1532 2.76368,4.9511 0,1.0464 0.39333,3.7672 -0.23047,3.4551 1.6765,2.33 -0.32401,11.7678 1.15039,13.2422 0.5942,0.5942 0.85868,1.0258 1.26758,1.8438 0.6232,1.2463 -0.2833,3.23192 0.3457,4.49022 1.3167,2.6335 3.49417,3.9963 4.60547,6.2187 0.3248,0.6499 1.66844,4.6636 0.80664,5.5254 -0.8395,0.8395 -1.98848,2.8371 -3.45508,3.5703 -2.1376,1.0688 -7.58769,2.5195 -9.21289,4.1446 -2.4333,2.4334 -3.75393,5.9434 -5.98633,8.1758 -2.4854,2.4854 -4.21129,5.592 -6.67969,8.0605 -1.6276,1.6276 -3.59504,1.8687 -5.18164,3.4551 -1.3128,1.3128 -1.92346,4.1129 -3.56836,5.7578 -0.088,0.088 -0.41003,-0.5081 -0.46093,-0.5762 -1.006,1.5419 -3.34212,-0.4586 -4.26172,0.461 -2.1779,2.1778 -1.42184,8.1378 -4.49024,9.6718 -3.0754,1.5379 -8.67582,-4.297 -11.51562,1.3828 -0.4992,0.9982 -2.13542,4.5803 -3.10742,5.0665 -1.0212,0.5104 -2.33875,0.3061 -3.33985,0.8066 -3.2378,1.6189 -11.22896,5.5838 -14.50976,2.3027 -2.6481,-2.648 2.85357,-6.4744 0.23047,-9.0976 -0.3602,-0.3602 -1.1767,-0.3721 -1.4961,-0.6914 -0.6679,-0.6679 -3.14898,2.2272 -3.45508,2.5332 -0.8322,0.8323 -8.07049,0.9169 -9.21289,0.3457 -2.4411,-1.2206 -6.24566,-0.1862 -8.63476,-1.3809 -1.9353,-0.9677 -3.12707,-2.8984 -4.60547,-4.3769 -1.2735,-1.2732 -6.81919,-2.0965 -7.02539,-2.3028 -0.961,-0.961 -1.1237,-0.9065 -2.5332,-1.6113 -3.0459,-1.5229 -4.80045,5.146 -5.87305,6.2187 -1.7229,1.7228 -3.22266,-1.5503 -3.22266,-2.7636 0,-5.5041 -2.148613,-2.3381 -3.570313,-5.1817 -1.0319,-2.0637 0.46094,-6.1281 0.46094,-8.0605 0,-0.5471 -4.10126,-6.2885 -4.37696,-6.5645 -1.1943,-1.1942 -2.00012,-14.6088 -1.26562,-16.8125 0.6469,-1.9408 1.94009,-3.4381 3.33789,-4.8359 0.1478,-0.5963 2.35058,-3.0616 1.61328,-3.7988 -2.8036,-2.8037 -3.1352,-7.635 -1.8418,-11.51572 0.6105,-1.8315 1.62627,-3.3677 2.41797,-4.9511 0.8932,-1.7865 1.10803,-4.2903 1.95703,-5.9883 0.710203,-1.4208 2.292683,-1.9352 3.109383,-3.5684 1.3685,-2.7368 1.90957,-7.1588 3.10937,-9.5586 1.7323,-3.4643 4.68981,-6.6898 6.90821,-10.0175 2.219,-3.3284 2.81931,-8.462 5.75781,-11.4004 1.2685,-1.2686 1.54013,-7.7299 2.30273,-10.0176 1.1353,-3.4061 5.87219,-6.7472 8.86719,-7.9453 3.1064,1.6021 3.98348,-0.4131 5.64258,-2.0723 0.3756,-0.3755 4.32457,-0.051 4.60547,0.2305 0.598,0.598 0.16824,2.2407 0.46094,2.5332 1.6756,1.6758 6.36764,-2.0326 7.36914,-2.5332 1.3839,-0.692 4.72211,-1.1516 5.41211,0.2285 0.2112,0.4224 1.18325,2.9614 0.68945,3.4551 -3.3656,3.3657 -5.44066,2.0196 -7.94336,7.0254 -0.6107,1.2209 -1.25848,5.2968 0.91992,5.2968 1.9346,0 2.56441,-1.1836 3.57031,-2.1894 1.3439,-1.3439 5.22657,0.3009 6.79297,-1.2656 0.8776,-0.8775 -0.017,-2.9762 0.92188,-3.9161 1.1808,-1.1809 6.1523,-1.7423 4.7207,-4.6054 -0.4178,-0.8359 -2.12023,-3.1269 -1.61133,-4.1446 0.4872,-0.9743 1.78074,-1.2604 2.30274,-2.3046 0.3971,-0.794 1.1661,-4.5757 0.6914,-5.5254 -0.6318,-1.2635 -3.51924,-7.3564 -2.99414,-8.4063 0.4726,-0.9454 1.57054,-1.4843 2.64844,-1.8437 1.3409,-0.4469 2.65389,0.7527 3.68359,1.2675 2.8159,1.408 3.78039,2.8159 4.83789,5.9883 0.21691,0.6509 -0.19021,1.6952 0.11329,2.3028 0.2067,0.4131 0.70883,0.9826 0.46093,1.7265 -0.2918,0.8756 -1.58852,4.6283 -0.91992,5.2969 0.7812,0.781 4.72078,-0.3457 5.64258,-0.8066 1.0883,-0.5441 1.17533,-2.2106 1.95703,-2.9922 1.297,-1.297 7.6736,-0.3589 9.0957,0.1152 1.0564,0.352 3.82254,1.9452 5.18165,1.2656 0.7391,-0.3697 3.99999,-0.8798 4.83789,-0.4609 1.4066,0.7033 3.80076,2.6523 4.60546,4.2617 1.1023,2.2047 8.87311,-0.8222 9.44141,-1.959 1.5071,-3.0136 -0.57422,-5.8062 -0.57422,-8.75 0,-0.506 0.29036,-6.3937 -1.15234,-4.9511 -0.3473,0.3474 -0.50664,1.5873 -0.80664,2.1875 -0.8005,1.6009 -5.42554,3.3897 -7.36914,2.4179 -3.3039,-1.6519 -5.21658,-4.5251 -7.48438,-6.7929 -0.2077,-0.2078 -1.12078,0.1571 -1.26758,0.2304 -1.9413,0.9706 -5.42514,0.6895 -7.71484,0.6895 -5.4264,-0.8993 -6.2482,-6.9311 -4.7207,-11.5137 0.675,-2.025 13.12806,-8.0615 14.16406,-7.0254 0.8808,0.8806 1.46337,10.9558 2.41797,10.4785 3.3984,-1.6992 1.09674,-3.7451 2.64844,-5.2968 0.2184,-0.2184 3.45963,2.6517 4.14453,2.9941 2.4598,1.2299 6.02024,-1.7604 7.36914,-3.1094 0.2032,-0.2032 0.6477,-2.3464 0.3457,-2.6484 -2.0269,-2.027 -7.39857,-3.0532 -8.63476,-5.5254 -0.5062,-1.0125 0.72863,-1.2737 2.20703,-1.2227 l 0,0 z m 86.78906,64.7871 c 2.0151,0.4104 3.24622,1.5792 3.95312,2.8808 0.8772,1.6623 0.96875,3.5102 0.96875,4.295 l 0,19.2988 c 0,1.2467 -0.046,3.2322 -0.92382,4.8945 -0.8773,1.7084 -2.44614,3.1407 -5.58594,3.1407 -3.1398,0 -4.71059,-1.4323 -5.58789,-3.1407 -0.8773,-1.6623 -0.92383,-3.6478 -0.92383,-4.8945 l 0,-2.123 4.98828,0 c 0,2.2625 0.046,3.7398 0.23047,4.6171 0.1847,0.8774 0.55417,1.2012 1.29297,1.2012 0.6003,0 1.01519,-0.2767 1.24609,-0.8769 0.1847,-0.6003 0.27735,-1.5256 0.27735,-2.8184 l 0,-3.0957 0.0644,0 0,-23.3789 z m 15.25,0.1113 0.002,0 0,34.1172 c -1.0921,-0.315 -1.92943,-0.8686 -2.55273,-1.5215 -0.9697,-1.0158 -1.52496,-2.3086 -1.75586,-3.4629 -0.2309,-1.1082 -0.27539,-2.0321 -0.27539,-2.3554 l 0,-3.9707 c 0,-2.5396 0.87744,-5.0793 2.58594,-6.6954 -1.52382,-1.5237 -2.31055,-3.8776 -2.31055,-6.2324 l 0,-2.8633 c 0,-0.4156 0.048,-2.2623 0.8789,-3.9707 0.6234,-1.2814 1.63554,-2.5105 3.42774,-3.0449 z m 4.12891,0 c 1.8129,0.5326 2.85566,1.7625 3.48046,3.0469 0.8311,1.7084 0.83008,3.5551 0.83008,3.9707 l 0,2.8633 c 0,2.3548 -0.78479,4.7087 -2.30859,6.2324 1.7085,1.6161 2.58594,4.1557 2.58594,6.6953 l 0,3.9707 c 0,0.3233 -0.0461,1.2473 -0.27735,2.3555 -0.2308,1.1543 -0.7842,2.4471 -1.7539,3.4629 -0.624,0.6536 -1.46276,1.2067 -2.55664,1.5215 l 0,-34.1192 z m -36.7168,0.09 3.00195,0 0,33.9375 -4.98633,0 0,-26.5957 -3.32617,0 0,-3.1875 c 2.0778,-0.4156 3.32583,-1.4769 4.20313,-2.4004 0.4618,-0.554 0.83032,-1.1536 1.10742,-1.7539 z m 54.13476,0 4.27735,0 0,22.1621 2.30859,0 0,4.3867 -2.30859,0 0,7.3887 -4.27735,0 0,-33.9375 z m -40.92187,0.049 0,20.4824 c -1.6038,-0.4226 -2.57058,-1.4825 -3.14258,-2.6621 -0.7387,-1.5238 -0.83203,-3.3714 -0.83203,-4.2949 l 0,-6.6016 c 0,-0.7848 0.093,-2.6326 0.9707,-4.2949 0.5935,-1.0933 1.51911,-2.0906 3.00391,-2.6289 z m 36.79687,10.3281 0,16.1719 -3.8789,0 0,-4.3867 3.8789,-11.7852 z m -53.84961,28.4375 63.66602,0 0,107.27542 -63.66602,0 0,-107.27542 z"
       id="rect6760-9-3-3" />
    <path
       inkscape:connector-curvature="0"
       style="opacity:1;fill:#ffe680;fill-opacity:0.99215686;stroke:#ff5555;stroke-width:2;stroke-linecap:butt;stroke-miterlimit:4;stroke-dasharray:none;stroke-dashoffset:0"
       d="m 68.927801,183.53006 0,269.76952 276.011769,0 0,-269.76952 -276.011769,0 z m 196.800799,27.1406 63.66597,0 0,106.9902 -63.66597,0 0,-106.9902 z m -61.67383,10.2656 c 14.3599,-0.3498 0.84963,11.1933 6.99023,17.334 1.9058,1.9058 9.34834,5.0806 12.86524,3.9082 0.6569,-0.2189 2.74752,-1.3128 3.41992,-0.9766 0.6568,0.3284 0.95113,0.9511 1.30273,1.3028 2.4247,2.4245 -4.69228,11.3681 -5.86328,12.539 -1.6236,1.6234 -6.23549,1.8971 -8.30469,2.9317 -0.3542,0.177 -3.38817,1.9848 -4.23437,1.1386 -0.5997,-0.5997 -1.80478,-13.0411 -4.23438,-15.4707 -0.8709,-0.8709 -2.04949,2.3757 -2.27929,2.6055 -0.878,0.8781 -3.54156,0.062 -4.72266,0.6524 -2.4205,1.2102 -7.15299,-5.0357 -8.30469,-6.1875 -2.3559,-2.356 -14.0039,6.7847 -14.0039,-5.2129 0,-3.1575 0.06,-5.76 1.79101,-7.4903 0.7488,-0.7489 2.67494,-0.2798 3.74414,-0.8144 1.4779,-0.7389 4.9086,-5.6774 7.6543,-2.9317 1.6557,1.6556 1.70603,13.6797 3.58203,13.6797 2.1369,0 1.33841,-6.1875 3.0957,-6.1875 0.4109,0 1.6158,0.8069 2.2793,1.1387 3.1757,1.5879 8.19134,-1.4004 9.11914,-3.2559 2.73,-5.46 -6.2451,-5.15 -5.375,-8.6308 0.5228,-0.037 1.01532,-0.061 1.47852,-0.072 z m -46.11914,21.5371 c 12.6192,-0.032 6.64641,8.4472 8.97851,10.7793 0.1386,0.1384 0.64039,3.1038 0.32617,3.418 -0.28858,0.2888 -1.45112,0.5197 -1.14062,1.1406 0.3912,0.7824 1.11221,0.786 1.62891,1.3027 1.9207,1.9207 6.80882,-4.854 7.32812,-5.373 0.94,-0.9402 6.94291,1.0116 7.81641,1.3027 2.7332,0.911 3.9448,0.996 6.1875,2.1172 1.3668,0.6836 2.372,-1.4204 3.9082,-0.6523 1.6441,0.822 4.60568,3.1389 5.86328,4.3965 3.2462,3.2461 10.91016,-0.1708 10.91016,7.6543 0,0.8961 0.069,2.5356 -0.48828,3.0937 -2.2158,2.2161 -8.46699,5.6959 -9.77149,8.3047 -1.4312,2.8624 2.02175,4.9155 0.65235,7.6543 -0.9951,1.9904 -3.23693,9.487 -2.76954,10.4219 1.47682,2.9536 1.14134,6.6769 2.76954,9.9336 1.7037,3.4074 5.57898,7.8089 4.39648,12.539 -0.029,0.6404 0.3294,1.9467 0,2.6055 -2.9388,5.8773 5.75638,14.37982 2.76758,20.35742 -2.127,4.254 -6.23038,3.4628 -8.95508,6.1875 -0.887,0.887 -0.36085,3.6165 -0.81445,4.0703 -2.607,2.6069 -4.68854,8.759 -6.67774,10.7481 -1.1034,1.1035 -4.50621,-0.3783 -5.53711,0.6523 -0.721,0.721 -0.88385,2.3507 -1.62695,3.0938 -2.2284,2.2284 -5.71287,3.4314 -7.98047,5.6992 -1.6853,1.6853 -1.04717,4.9555 -2.60547,6.5137 -1.5268,1.5268 -5.53524,-1.3044 -6.83984,0 -2.1609,2.1609 -5.69051,3.8993 -7.81641,6.0254 -0.6093,0.6093 -1.99209,-1.5038 -2.27929,-1.7911 -0.8054,-0.8056 -2.73361,-0.5535 -3.90821,-1.1406 -2.264,-1.1321 -6.96966,3.2901 -8.63086,1.6289 -0.8413,-0.8412 -0.42303,-2.8664 -1.30273,-3.7461 -0.8275,-0.8275 -3.36019,2.0576 -3.74609,2.4434 -1.2703,1.2705 -19.79925,-3.0256 -20.84375,-4.0703 -1.6849,-1.6847 -4.01202,-3.0354 -5.69922,-4.7227 -0.9857,-0.9856 -0.97172,-2.7627 -1.79102,-3.582 -1.1997,-1.2 -7.37443,-0.3492 -8.95703,-1.1406 -0.7151,-0.3576 -7.238399,-6.332 -7.492199,-6.8399 -0.9444,-1.8886 -1.78845,-4.2317 -3.09375,-5.5371 -0.429,-0.4291 -0.31789,-1.9405 -0.65039,-2.6055 -3.4865,-6.9728 0.87182,-12.3275 3.41992,-17.4238 1.9301,-3.8602 -4.70653,-6.8741 -2.76953,-10.74802 4.6222,-9.2445 9.413799,-20.1303 13.679699,-28.6622 5.0738,-6.1059 7.47812,-15.1162 11.07422,-22.3085 1.1509,-2.3019 0.25119,-5.7883 2.11719,-7.6543 4.7405,-4.7404 8.65701,-4.7357 14.16601,-7.4903 0.8666,-0.4332 3.8322,2.7676 5.375,2.7676 2.1675,0 7.24072,-3.8312 7.97852,-3.0937 4.9387,4.9389 -10.6374,9.0659 -4.5586,15.1445 1.9685,1.9685 3.91575,-1.0623 5.37305,-1.791 1.6752,-0.8376 3.4023,1.9604 5.375,1.3027 2.3627,-0.7873 1.55809,-4.654 2.92969,-6.0254 0.6442,-0.6444 1.1885,0.929 1.6289,0.4883 0.9534,-0.9531 2.86423,-2.3085 3.41993,-3.4199 1.0476,-2.0953 -1.31273,-4.0924 -1.95313,-5.3731 -1.0951,-2.1901 4.50649,-5.1028 2.11719,-7.4922 -2.3612,-2.3612 -3.52333,-8.0583 -2.76953,-11.0722 0.4467,-0.019 0.87395,-0.03 1.28125,-0.031 z m 164.68754,80.0567 0,0 c 3.1385,7e-4 4.755,1.6161 5.5859,3.3242 0.8311,1.7084 0.877,3.55512 0.877,3.97072 0,5.0329 -0.8767,7.4333 -2.4004,8.957 l -0.047,0.047 c 2.401,1.8931 2.8632,5.4014 2.8632,9.3262 0,0.1385 -7e-4,0.4628 -0.047,0.9707 -0.046,0.9697 -0.3221,2.3994 -0.83,3.8769 -0.5541,1.4776 -1.4788,2.8166 -2.9102,3.6016 -0.7388,0.4156 -1.6157,0.6015 -2.6777,0.6015 -3.1398,0 -4.7555,-1.5706 -5.6328,-3.6484 -0.8773,-2.0316 -0.9688,-4.6166 -0.9688,-6.5098 l 4.8926,0 c 0,2.2625 0.139,3.6931 0.416,4.5704 0.2771,0.9235 0.6927,1.2011 1.293,1.2011 0.785,0 1.2,-0.6005 1.3847,-1.4316 0.1847,-0.8312 0.1856,-1.8937 0.1856,-2.8633 0,-1.062 8e-4,-2.031 0.047,-2.9082 0,-1.6623 -0.3247,-2.8172 -1.3867,-3.5098 -0.5541,-0.3232 -1.3853,-0.5534 -2.4473,-0.5996 l -0.4141,0 0,-4.1562 c 2.0778,-0.1385 3.0493,-0.5539 3.4649,-1.5235 0.2309,-0.4617 0.3223,-1.0619 0.3223,-1.8007 l 0,-2.7247 c 0,-0.9697 -9e-4,-2.0309 -0.1856,-2.90822 -0.1847,-0.8773 -0.5997,-1.4785 -1.3848,-1.4785 -0.6002,0 -0.9696,0.277 -1.1543,1.1543 -0.2309,0.9235 -0.3222,2.35672 -0.3222,4.61922 l -4.8945,0 c 0,-1.8931 0.046,-4.47892 0.8769,-6.55672 0.831,-2.0311 2.354,-3.6008 5.4922,-3.6015 z m -16.96879,0.1445 c 2.0828,0.3887 3.34455,1.5763 4.06449,2.9023 0.8773,1.6623 0.9707,3.508 0.9707,4.29302 l 0,19.3008 c 0,1.2467 -0.046,3.2323 -0.9239,4.8945 -0.87726,1.7084 -2.4461,3.1406 -5.5859,3.1406 -3.1398,0 -4.71059,-1.4322 -5.58789,-3.1406 -0.8773,-1.6622 -0.92383,-3.6478 -0.92383,-4.8945 l 0,-2.1231 4.98633,0 c 0,2.2625 0.048,3.7399 0.23242,4.6172 0.1847,0.8773 0.55417,1.2012 1.29297,1.2012 0.6002,0 1.01519,-0.2787 1.24609,-0.8789 0.1847,-0.6003 0.27735,-1.5235 0.27735,-2.8164 l 0,-6.3711 c -0.017,0.01 -0.0318,0.016 -0.0488,0.025 l 0,-4.2656 c 0.015,-0.064 0.0438,-0.1368 0.0488,-0.1934 l 0,-9.97272 c 0,-0.067 -0.0278,-0.1708 -0.0488,-0.2656 l 0,-5.4531 z m -18.79688,0.012 c 2.04466,0.401 3.28948,1.5781 4.00196,2.8906 0.8773,1.6623 0.96875,3.508 0.96875,4.29302 l 0,19.3008 c 0,1.2467 -0.0441,3.2323 -0.92188,4.8945 -0.8773,1.7084 -2.44809,3.1406 -5.58789,3.1406 -3.1398,0 -4.70864,-1.4322 -5.58594,-3.1406 -0.8773,-1.6622 -0.92383,-3.6478 -0.92383,-4.8945 l 0,-2.1231 4.98633,0 c 0,2.2625 0.046,3.7399 0.23047,4.6172 0.1847,0.8773 0.55417,1.2012 1.29297,1.2012 0.6003,0 1.01519,-0.2787 1.24609,-0.8789 0.1847,-0.6003 0.27735,-1.5235 0.27735,-2.8164 l 0,-2.5977 0.0156,0 0,-23.88672 z m -17.28906,0.2129 3.00195,0 0,33.93752 -4.98632,0 0,-26.5957 -3.32422,0 0,-3.18752 c 2.0778,-0.4155 3.32387,-1.477 4.20117,-2.4004 0.4618,-0.5541 0.83032,-1.1536 1.10742,-1.7539 z m 13.16211,0.066 0,20.45312 c -1.5737,-0.4316 -2.5259,-1.4832 -3.0918,-2.6504 -0.7387,-1.5238 -0.83008,-3.3714 -0.83008,-4.2949 l 0,-6.6035 c 0,-0.78502 0.091,-2.63072 0.96875,-4.29302 0.5869,-1.081 1.49773,-2.0688 2.95313,-2.6113 z m 18.79883,0.021 0,20.41992 c -1.5392,-0.4414 -2.4703,-1.4858 -3.0293,-2.6387 -0.7388,-1.5238 -0.83203,-3.3714 -0.83203,-4.2949 l 0,-6.6035 c 0,-0.78502 0.093,-2.63072 0.9707,-4.29302 0.5788,-1.0663 1.46993,-2.0424 2.89063,-2.5898 z m -35.91797,39.70902 63.90036,0 0,69.0097 -63.90036,0 0,-69.0097 z"
       id="rect6760-9-3-1" />
    <path
       inkscape:connector-curvature="0"
       style="opacity:1;fill:#ffe680;fill-opacity:0.99215686;stroke:#ff5555;stroke-width:2;stroke-linecap:butt;stroke-miterlimit:4;stroke-dasharray:none;stroke-dashoffset:0"
       d="m 70.720751,-100.87893 0,269.76952 276.011709,0 0,-269.76952 -276.011709,0 z m 196.894509,27.265601 63.4805,0 0,143.587923 -63.4805,0 0,-143.587923 z m -62.1875,11.0918 0,0 c 4.2896,0.3858 7.2462,6.4883 5.5742,8.1601 -0.4733,0.4734 -1.6204,2.6345 -1.1524,3.5704 0.9384,1.877 2.0546,3.8966 3.3399,5.1816 2.0596,2.059603 5.1807,0.689903 7.9453,2.072303 0.6294,0.3147 3.6888,2.5279 4.375,1.8418 0.1313,-0.1304 2.8987,-2.1677 3.5703,-1.4961 1.9577,1.9577 2.0137,4.7796 0.1153,6.6777 -0.9567,0.9563 -0.3535,3.1172 -1.1524,3.916 -1.6834,1.6835 -5.3639,0.8716 -5.7578,1.2656 -0.3745,0.3744 -0.2174,1.0893 -0.8047,1.3829 -1.0909,0.5454 -3.8214,-1.1317 -4.7227,-0.2305 -0.4081,0.4082 -0.8891,1.4808 -1.3808,1.7265 -0.6857,0.3429 -3.4752,0.9928 -4.0293,-0.1152 -0.7677,-1.5355 1.4961,-2.5033 1.4961,-3.6836 0,-0.138 -1.7148,-1.2558 -1.8418,-1.3828 -1.2097,-1.2097 -1.3233,-5.6964 -2.1895,-6.5625 -0.5006,-0.5007 -1.2386,-1.0102 -1.7265,-1.498 0,-0.01 -5.185,2.9975 -5.5274,3.3398 -0.2891,0.289 -1.0842,0.1973 -1.3808,0.3457 -3.3836,1.6917 -4.3819,-2.5401 -5.6426,-3.8008 -0.3905,-0.3903 0.5057,-1.5667 0.1152,-1.957 -0.1605,-0.1604 -1.3416,0 -1.6133,0 -6.4949,0 -14.7382,5.8203 -14.7382,-4.259803 0,-1.6246 -0.1235,-3.9053 0.9218,-4.9511 0.4709,-0.4709 1.7739,-0.2777 2.3028,-0.8067 0.9161,-0.9161 7.9056,-6.3715 9.6719,-4.6055 0.3521,0.3522 -0.1292,1.9434 0.2304,2.3028 0.5789,0.5789 1.4624,1.3472 2.0723,1.957 1.5142,1.5142 -1.7673,6.2551 1.3828,7.8301 0.6305,0.3152 2.207,-5.0859 2.8789,-5.7578 0.1313,-0.1319 3.5489,1.5812 4.8359,1.1523 3.175,-1.0584 5.3615,-2.4845 7.1387,-4.2617 0.5227,-0.5226 -2.1881,-2.015 -2.5332,-2.1875 -3.1595,-1.5797 -3.9966,-3.7071 -3.6855,-4.9512 0.6576,-0.2078 1.2973,-0.2699 1.9101,-0.2148 z m -45.2383,23.234403 0,0 c 3.5603,0.4931 6.9795,0.4992 8.1426,3.9882 0.4871,1.4615 -2.0395,1.6225 -1.1407,3.42 0.439,0.8781 2.9706,2.8927 1.629,4.2343 -1.2668,1.2667 -3.8262,0.9921 -3.8262,3.6641 0,0.1295 -0.082,0.7325 0,0.8145 4.1998,4.1998 9.6805,-4.726 14.5742,-2.2793 1.0182,0.5093 2.4307,3.9187 1.3027,5.0468 -0.7508,0.7505 -5.2368,1.5791 -4.0722,3.9082 0.1404,0.2814 0.6942,0.266 0.9785,0.4082 2.4231,1.2115 4.9668,-1.5064 4.9668,0.2442 0,0.4873 0.7479,2.6719 0.2441,3.1758 -0.316,0.3076 -1.7846,0.1875 -2.1992,0.3261 -0.9531,0.3177 -2.8142,1.3205 -3.9902,0.7325 -1.5208,-0.7604 -3.8592,-4.0549 -6.1055,-2.9317 -0.5113,0.2557 -3.4652,2.154 -2.2813,3.3379 0.4356,0.4357 2.2212,1.7689999 2.1172,1.8730999 -0.8828,0.8827 -4.7245,3.0918 -3.0117,4.8046 0.8054,0.8054 -3.7722,1.0307 -4.1523,1.2207 -1.8893,0.9448 -3.3185,5.5175001 -2.4434,8.1426001 0.1769,0.5293 0.4472,1.0173 0.7324,1.3028 0.1277,0.128 10.9131,0.3244 11.1563,0.082 0.7581,-0.7582 4.8636,-3.1445 6.1055,-2.5235 1.5588,0.7794 4.8459,2.1994 5.5371,3.5821 0.3218,0.6431 -0.2389,1.48 0,2.1972 0.2083,0.6228 1.0046,1.5343 0.1621,1.9551 -1.3815,5.1244 3.6373,8.5984 1.5136,12.8457 -1.4768,2.9536 -4.31,1.4814 -4.9511,2.7637 -0.6079,1.2156 1.5104,4.4038 2.0722,5.5273 1.2975,2.595 -3.6294,5.8677 -2.7636,7.5997 0.6648,1.3296 3.0711,1.4596 3.916,2.3046 1.6083,1.6083 0.5762,6.93792 0.5762,9.21102 0,2.3701 0.384,5.8356 2.3027,6.7949 0.5088,0.2545 1.531,0.033 1.957,0.459 0.6999,0.6998 1.004,1.7794 1.4961,2.7637 0.2012,0.4024 -4.8283,6.2187 -5.4121,6.2187 -0.3274,0 -0.1478,-0.6594 -0.3437,-0.9219 -1.5943,3.5728 3.4181,6.9451 0.5742,9.7891 -2.0428,2.0427 -6.1464,1.6562 -8.2891,3.7988 -3.3578,3.3578 -3.7695,9.1975 -8.6367,11.630896 -7.9357,3.9682 -38.6456,1.5856 -42.6055,-6.333996 -1.1195,-2.239 -1.1074,-9.7148 0.5762,-11.3984 0.8423,-0.8423 3.2227,-1.1908 3.2227,-2.9942 0,-1.0061 -7.1347,-5.1874 -5.4122,-6.9101 2.179,-2.179 5.4841,4.3985 7.1407,3.5703 3.5135,-1.7567 -0.6576,-8.9365 0.9199,-12.0918 0.4049,-0.8097 4.9253,-4.7375 5.9883,-6.3321 1.9838,-2.9756 3.3989,-6.33902 4.8359,-9.21282 l 0.065,-0.918 c -0.1356,0.3063 -0.2655,0.6137 -0.4102,0.918 l 1.5605,-17.1114 1.5079,-21.2519 c -0.062,-0.067 -0.1297,-0.1511 -0.1895,-0.2110001 -1.4418,-1.4416 -8.0245,-7.1746 -10.248,-4.9511 -0.3618,0.362 -2.4816,2.5847 -3.2246,1.8418 -0.5114,-0.5116 -0.8817,-7.8686 -1.3809,-7.3692 -1.634,1.634 -0.7843,6.1946 -1.3828,6.793 -1.1096,1.1097 -1.2538,3.9082001 -2.8789,4.7207001 -2.3095,1.1549 -6.1163,3.2522 -7.0235,5.0664 -0.9944,1.9889 -0.7148,5.4373 -2.1875,6.9102 -0.3064,0.3065 -0.1152,2.0557 -0.1152,2.5332 0,2.4425 0.036,4.5258 1.7285,6.2187 0.5336,0.5339 2.499,2.0254 2.1875,2.6484 -0.5468,1.0936 -1.6607,1.3481 -2.8789,1.9571 -5.4923,2.7462 -3.8254,3.6194 -6.2187,8.4062 -0.1167,0.234 -0.5317,1.771 -0.2305,2.0723 1.1877,1.1877 9.7891,-7.3511 9.7891,-3.916 0,3.5739 -2.3846,3.8807 -4.1465,5.6426 -0.7708,0.7707 -1.0529,2.0899 -1.6114,2.6484 -1.0934,1.0934 0.3102,4.52582 -0.8066,5.64262 -1.8833,1.8831 6.801,4.0232 4.2598,6.5644 -1.6061,1.6063 -6.2875,-3.4901 -7.1387,-3.916 -2.4413,-1.2203 -6.0093,2.8751 -2.5332,3.5703 3.4058,1.142 5.0037,8.3538 2.418,10.9395 -0.9837,0.9836 -2.418,-0.5635 -2.418,1.957 0,5.0158 2.3686,5.7578 6.9082,5.7578 0.7474,0 5.5593,-0.1817 4.9512,1.0352 -1.0571,2.1143 -23.1898,1.6813 -24.87111,0 -0.865596,-0.8656 -2.137796,-1.5754 -2.648496,-3.1075 -2.5405,-7.6216 -0.7294,-7.4084 2.533196,-13.9335 2.26321,-4.5263 -4.006696,-10.4105 -2.417896,-13.58792 1.4485,-2.897 6.298806,-11.6931 6.792906,-14.1641 1.1753,-3.3386 3.0962,-6.8801 4.4922,-9.6719 0.8205,-1.6414 0.136,-3.5215 1.3809,-5.1816 1.7594,-2.3459 3.9093,-4.1349 5.0664,-6.4492 0.48,-0.9601 -0.018,-2.3939 0.4609,-3.3379 1.1553,-2.3102 2.716,-5.4817001 4.375,-7.1406001 0.7509,-0.7508 0.2229,-3.0846 0.5762,-4.1446 1.5342,-4.6025999 3.1593,-7.8803999 6.6797,-11.4003999 1.6213,-1.6217 6.0629,0.041 7.4844,-1.3808 0.5289,-0.5289 0.747,-0.7204 1.6113,-1.1524 1.7871,-0.8937 4.7625,0.5762 6.5644,0.5762 1.6681,0 4.8785,-3.8718 6.3321,-2.418 0.3195,0.3195 1.5639,0.7879 1.1523,1.6114 -0.2896,0.5793 -1.7034,0.6684 -2.0722,1.0371 -1.7025,1.7028 -5.7432,10.7236999 -3.6856,12.7811999 2.3701,2.3701 3.7805,-2.7218 5.8731,-1.1523 l -0.016,0.1758 c 1.7305,0.3367 1.8008,2.1495 1.8008,4.0859 0,0.3411 0.6339,1.351 1.0352,1.1504 1.7626,-0.8813 3.1742,-3.3997 4.8945,-4.2598 0.445,-0.2225 1.3273,3.1063 2.9941,1.4395 0.7201,-0.7204 -0.7418,-6.0653999 -0.06,-7.4277999 1.771,-3.5416 6.0519,-11.0266 4.9512,-15.4297 -0.8816,-3.5268 -2.8856,-6.6383 -4.3164,-9.5 -0.5496,-1.0989 0.6479,-1.9913 1.58,-2.0253 z m 16.7618,30.6034999 c 0.5502,-0.012 1.0911,0.1738 1.6445,0.1738 1.9433,0 5.4391,0.6682 3.3379,2.7695 -0.415,0.4151 -0.7287,1.0841 -1.3848,1.3028 -1.1058,0.3686 -3.3295,0.2893 -4.3965,-0.2442 -0.4921,-0.2461 -1.7645,0.1901 -2.1172,-0.1621 -1.6842,-1.6839 1.2114,-2.8836 2.3614,-3.7461 0.1863,-0.063 0.3713,-0.088 0.5547,-0.092 l 0,0 z m 93.7246,84.2363201 c 2.5395,0 4.2477,0.9678 5.2636,2.4453 1.0158,1.5238 1.3848,3.6491 1.3848,6.0039 0,3.463 -1.2921,7.5719 -2.9082,11.404296 -1.6622,3.8786 -3.6016,7.3415 -4.8945,9.5117 l 7.8945,0 0,4.9414 -13.5293,0 0,-4.9414 c 1.5237,-2.3548 2.9096,-4.7552 4.1563,-7.1562 1.0619,-2.0317 2.0783,-4.3404 2.8632,-6.695296 0.785,-2.3549 1.3855,-4.6644 1.4317,-6.7422 0,-0.9234 -0.046,-1.9845 -0.2774,-2.7695 -0.2309,-0.7849 -0.646,-1.3848 -1.3847,-1.3848 -0.6927,0 -1.109,0.5073 -1.3399,1.2461 -0.2309,0.7849 -0.3222,1.8001 -0.3222,2.9082 l 0,2.3555 -4.9883,0 0,-2.3555 c 0,-2.2625 0.3232,-4.4777 1.2929,-6.0938 0.9694,-1.6161 2.6332,-2.6777 5.3575,-2.6777 z m 21.791,0.2891 c 0.6841,0.203 1.2727,0.4984 1.7617,0.8652 0.9235,0.6926 1.5688,1.6157 1.9844,2.5391 0.5079,1.062 0.7859,2.3074 0.832,3.6464 l 0,19.994196 c -0.046,1.3852 -0.3241,2.6313 -0.832,3.6933 -0.4156,0.9234 -1.0609,1.8016 -1.9844,2.4942 -0.4891,0.3914 -1.0775,0.6845 -1.7617,0.8808 l 0,-34.113196 z m 34.6191,0 0,34.103496 c -0.6882,-0.1963 -1.2809,-0.4872 -1.7656,-0.875 -0.9235,-0.6926 -1.5237,-1.5708 -1.9395,-2.4942 -0.5077,-1.062 -0.7859,-2.3081 -0.832,-3.6933 l 0,-19.994196 c 0.046,-1.339 0.3243,-2.5844 0.832,-3.6464 0.4158,-0.9234 1.016,-1.8465 1.9395,-2.5391 0.4847,-0.3635 1.0773,-0.6583 1.7656,-0.8613 z m -19.4453,0.01 0,34.085996 c -0.6708,-0.1964 -1.2474,-0.487 -1.7226,-0.8672 -0.9235,-0.6926 -1.5239,-1.5708 -1.9395,-2.4942 -0.5079,-1.062 -0.784,-2.3081 -0.8301,-3.6933 l 0,-19.994196 c 0.046,-1.339 0.3222,-2.5844 0.8301,-3.6464 0.4156,-0.9234 1.016,-1.8465 1.9395,-2.5391 0.4752,-0.3563 1.0518,-0.6489 1.7226,-0.8516 z m 4.3613,0.018 c 0.6297,0.2018 1.1682,0.49 1.627,0.834 0.9235,0.6926 1.5707,1.6157 1.9863,2.5391 0.5079,1.062 0.7839,2.3074 0.8301,3.6464 l 0,19.994196 c -0.046,1.3852 -0.3222,2.6313 -0.8301,3.6933 -0.4156,0.9234 -1.0628,1.8016 -1.9863,2.4942 -0.4588,0.367 -0.9973,0.6535 -1.627,0.8496 l 0,-34.050796 z m 19.4454,0.021 c 0.6086,0.2009 1.137,0.4792 1.5839,0.8144 0.9235,0.6926 1.5688,1.6157 1.9844,2.5391 0.5079,1.062 0.7858,2.3075 0.832,3.6465 l 0,19.994096 c -0.046,1.3852 -0.3241,2.6314 -0.832,3.6934 -0.4156,0.9234 -1.0609,1.8015 -1.9844,2.4941 -0.4469,0.3576 -0.9753,0.6344 -1.5839,0.8301 l 0,-34.011696 z m -43.3418,0.01 0,33.999996 c -0.6126,-0.1957 -1.1452,-0.4701 -1.5879,-0.8243 -0.9235,-0.6926 -1.5239,-1.5707 -1.9395,-2.4941 -0.5079,-1.062 -0.7858,-2.3082 -0.832,-3.6934 l 0,-19.994096 c 0.046,-1.339 0.3241,-2.5845 0.832,-3.6465 0.4156,-0.9234 1.016,-1.8464 1.9395,-2.539 0.4428,-0.332 0.9752,-0.6083 1.5879,-0.8086 z m -20.8536,39.410096 64.2051,0 0,32.1719 -64.2051,0 0,-32.1719 z"
       id="rect6760-9-3-2" />
    <g
       id="g3670"
       transform="translate(-313.01814,-29.705626)">
      <path
         sodipodi:nodetypes="ccscccssssccccssssccccsssscccsssscccscccsccscssccccccssccccccccccccccsccccsscccccsssscsccccsccccccccscssccsccsscccccccccccccccsccscccscccccccccccccscsccccsscscscccscsccccccccccccccccccccsscscccscscssscccccccccccccccsscccscccccccccccscccsscsccscsscccccscscsccccccccccccccsccccccsscccccccsccscccscccsccssccscccccccsccccccsscsccsssccsccccscccccccccccccccccccccsccccccccccccccccccccscccsscccccscscscccccccccccccccccccccccccccccccccsccccscscccccccscccscccccsscscccccccscscsccccccccccccccccccccccsccccccccccccccccccccccccccccccccccccccccccccccscsssccscscccccccccccccccccccccccccccccccscscsccccccccsscccccscccccssccsscccccccsccccccccsscsccssccccccccccccccccccscsccccccscccsccscsccccccccccssccssssccscccsccccccccccc"
         inkscape:connector-curvature="0"
         id="rect6760-9-3"
         d="m 963.66143,-76.500224 -239.9766,0 c -9.8149,0 -17.7168,7.9018 -17.7168,17.7168 l 0,1.5859 -0.3261,0 0,0.025 c -0.045,-3e-4 -0.087,-0.01 -0.1329,-0.01 -9.242,0 -16.6855,7.9018 -16.6855,17.7168 l 0,142.873104 c 0,9.815 7.4435,17.7168 16.6855,17.7168 0.073,0 0.1445,-0.01 0.2168,-0.012 l 0,275.752 -0.051,0 0,0.023 c -0.045,-4e-4 -0.087,-0.01 -0.1328,-0.01 -9.2426,0 -16.6856,7.9018 -16.6856,17.7168 l 0,142.873 c 0,9.815 7.443,17.7168 16.6856,17.7168 0.055,0 0.1092,-0.01 0.164,-0.01 l 0,275.918 276.0098,0 0,-275.9199 c 0.062,0 0.1229,0.01 0.1855,0.01 9.2426,0 16.6836,-7.9018 16.6836,-17.7168 l 0,-142.8731 c 0,-9.815 -7.441,-17.7168 -16.6836,-17.7168 -0.055,0 -0.1087,0.01 -0.164,0.01 l 0,-0.027 0,-275.748 c 0.044,0 0.088,0.012 0.1328,0.012 9.2426,0 16.6836,-7.9018 16.6836,-17.7168 l 0,-142.873004 c 0,-9.815 -7.441,-17.7168 -16.6836,-17.7168 -0.055,0 -0.1088,0.01 -0.1641,0.01 l 0,-0.027 -0.3281,0 0,-1.5859 c 0,-9.815 -7.9018,-17.7168 -17.7168,-17.7168 z m -210.1953,50.7089 c 0.374,0.011 1.0772,0.2233 2.3945,0.6426 7.2542,2.3062 13.8185,7.6873 16.7774,13.7559 2.5239,5.1764002 3.0723,8.5015002 2.6425,15.9531002 -0.2914,5.0535 -0.2151,6.4984998 0.4063,7.6933998 1.6533,3.1786 4.7013,4.7929 9.0527,4.7929 l 2.4199,0 1.3731,-2.8066 c 2.8563,-5.8380998 8.5514,-12.0097998 11.084,-12.0097998 1.5642,0 1.0919,1.4244 -1.8614,5.6153 -3.3081,4.6939998 -5.3969,9.5727998 -4.3711,10.2069998 0.3641,0.2248 2.0712,0.5598 3.793,0.7441 1.7218,0.1841 3.8462,0.4617 4.7227,0.6153 1.4228,0.2493 1.6324,0.1243 1.9472,-1.17 1.8566,-7.6274 12.5075,-21.6987998 17.4883,-23.1053998 4.0911,-1.1554 3.4477,2.1102 -1.6484,8.373 -3.4052,4.1847 -7.3731,12.9991998 -7.3731,16.3769998 0,1.245 0.7578,1.4938 6.25,2.0566 l 3.2129,0.3281 0.6211,-2.3242 c 3.2684,-12.2203998 18.4911,-30.1894 23.836,-28.1386998 1.8923,0.7267 0.5302,3.7713 -4.7754,10.6934 -4.6903,6.1197 -8.097,13.4233998 -8.9668,19.2245998 l -0.3418,2.2832 4.2578,0.6289 c 2.3422,0.3462 4.9659,0.753 5.8281,0.9024 1.4811,0.2564 1.6017,0.1497 2.2129,-1.9395 2.3264,-7.9506 9.201,-18.3431998 17.0527,-25.7753998 3.4031,-3.2214 4.8823,-4.2651 6.6758,-4.7168 5.7757,-1.4542 5.3292,1.4836 -1.6601,10.9102 -4.5552,6.1438998 -8.776,14.1152998 -9.9981,18.8827998 -1.2399,4.8376 -1.4238,4.6001 4.2012,5.3984 2.7396,0.3888 5.2092,0.7204 5.4902,0.7364 0.281,0.017 0.9967,-1.2401 1.5899,-2.7891 3.3052,-8.6317 8.3944,-16.4063998 15.2539,-23.3026998 4.7223,-4.7478 6.6949,-6.1438 8.955,-6.3379 2.6196,-0.2249 3.0665,-0.035 3.0665,1.3066 0,1.84889995 -1.1505,3.9163 -5.0977,9.1699 -4.752,6.3248998 -7.8608,11.9213998 -9.6973,17.4472998 -1.7995,5.4148 -1.8731,6.1483 -0.6582,6.5 2.3017,0.6661 8.9701,1.3845 9.3243,1.0039 0.2179,-0.2348 1.3128,-2.1504 2.4316,-4.2578 3.5502,-6.6866 14.4743,-26.6676998 14.7969,-27.06449985 0.232,-0.2852 6.0975,1.74500005 9.2539,3.20320005 3.1126,1.438 7.2343,5.5601 7.2343,7.2323998 0,0.7731 -1.0567,2.7706 -2.5546,4.8301 -1.4049,1.9316 -2.5547,3.7418 -2.5547,4.0234 0,1.7499 5.7945,0.924 10.1797,-1.4512 1.5252,-0.826 2.9675,-1.5039 3.205,-1.5039 1.077,0 5.2508,4.6116 8.2461,9.1114 4.4389,6.6689 9.3495,15.6645 10.0977,18.498 1.0928,4.1374 0.4476,5.5759 -4.543,10.1504 -5.5702,5.1061 -10.9446,9.4302 -16.3359,13.1543 0.049,-0.4162 0.084,-0.8351 0.084,-1.2637 0,-10.1234 -8.5379,-15.6996 -17.5157,-11.4394 -6.7583,3.2071 -8.8841,12.7867 -4.1015,18.4707 1.1671,1.3868 3.2384,2.9118 5.0097,3.7539 -6.2707,2.9241 -12.648,5.1652 -16.4296,5.7324 l -2.3633,0.3535 -1.8047,-2.8242 c -4.7273,-7.3901 -6.4607,-19.8542 -4.5977,-33.0742 l 0.3301,-2.3262 -4.9746,-1.1426 c -2.7351,-0.6282 -5.0642,-1.049 -5.1777,-0.9355 -0.4319,0.432 -1.1973,8.975 -1.1973,13.4375 0,5.6091 0.9762,11.5454 2.9824,18.0781 1.9504,6.3512 2.3958,9.6624 1.4727,10.916 -0.4036,0.5478 -0.9335,0.7731 -1.5488,0.7071 -1.8473,-0.1966 -4.4617,-2.9997 -6.7129,-7.4825 -5.2163,-10.3874 -7.5451,-19.9705 -7.6211,-31.3496 -0.043,-6.2707 -0.181,-7.5778 -0.8262,-7.7695 -3.0984,-0.9207 -8.5212,-2.3164 -8.9961,-2.3164 -0.7614,0 -1.7402,8.7337 -1.7402,15.4707 0,6.4269 0.481,9.4332 2.832,17.8262 3.2056,11.4418 2.3155,14.6365 -2.8672,10.2753 -3.1729,-2.6694 -8.564,-15.6131 -10.4766,-25.1562 -0.8475,-4.2295 -1.2291,-14.0245 -0.748,-19.1719 l 0.2363,-2.541 -5.4179,-0.8125 -5.4161,-0.8125 -0.2832,2.0762 c -1.3255,9.6839 -0.8491,16.6803 1.7168,25.1601 2.7946,9.236 2.53,12.4784 -0.873,10.7188 -2.0276,-1.0485 -2.8452,-2.0977 -5.0332,-6.4688 -4.3092,-8.6077 -6.5147,-17.767 -6.5527,-27.205 -0.017,-3.3016 -0.035,-6.0163 -0.047,-6.0313 -0.1783,-0.2098 -8.7807,-1.2988 -8.9649,-1.1348 -0.14,0.1243 -0.2397,3.7133 -0.2207,7.9747 0.031,6.8746 0.1889,8.2489 1.3946,12.1894 1.8569,6.0689 2.1656,8.2338 1.2754,8.9727 -1.3081,1.0856 -3.7699,-1.0097 -5.6836,-4.8399 -3.5523,-7.1101 -5.4512,-14.6491 -5.4512,-21.6465 l 0,-4.0429 -5.3633,0 -5.3652,0 0,3.205 c 0,1.7619 0.4596,4.8628 1.0215,6.8907 1.7794,6.4213 1.0117,8.7361 -1.6954,5.1054 -2.1867,-2.9329 -4.8984,-11.3254 -4.9414,-15.2968 0,-0.723 -4.4891,-0.9935 -6.6777,-0.4043 -4.657,1.2541 -7.2616,4.2546 -8.7051,10.0312 -2.7214,10.8898 -8.7728,18.3085 -19.1054,23.4199 -3.8134,1.8866 -12.8428,4.7001 -13.375,4.168 -0.082,-0.082 0.1733,-1.8354 0.5664,-3.8984 0.61,-3.212 0.6112,-4.2361 0,-7.1192 -0.9361,-4.4164 -0.9095,-11.2302 0.061,-15.3437 1.8664,-7.918 6.8071,-14.4455 14.9805,-19.7852 0.1052,-0.068 -0.3775,-0.8027 -1.0742,-1.6308 -0.6969,-0.8284 -1.8897,-3.0556 -2.6485,-4.9512 -1.7779,-4.4410998 -4.3887,-14.5606998 -4.3887,-17.0136998 0,-3.1907 1.3126,-7.1802002 4.5586,-13.8652002 1.7054,-3.5123 3.1036,-6.6743 3.1036,-7.0254 0,-0.3815 0.044,-0.5716 0.4179,-0.5606 z m 170.2129,177.201204 c 2.0301,0.4057 3.2689,1.5795 3.9785,2.8867 0.8773,1.6623 0.9687,3.508 0.9687,4.293 l 0,19.3008 c 0,1.2467 -0.046,3.2323 -0.9238,4.8945 -0.8773,1.7085 -2.4461,3.1406 -5.5859,3.1406 -3.1398,0 -4.7106,-1.4321 -5.5879,-3.1406 -0.8773,-1.6622 -0.9238,-3.6478 -0.9238,-4.8945 l 0,-2.1231 4.9882,0 c 0,2.2626 0.046,3.7399 0.2305,4.6172 0.1847,0.8773 0.5542,1.1992 1.293,1.1992 0.6003,0 1.0152,-0.2766 1.2461,-0.8769 0.1847,-0.6003 0.2773,-1.5235 0.2773,-2.8164 l 0,-2.8574 0.039,0 z m -17.3125,0.207 3.0019,0 0,33.9375 -4.9883,0 0,-26.5957 -3.3242,0 0,-3.1855 c 2.0778,-0.4156 3.3263,-1.4769 4.2031,-2.4004 0.462,-0.5541 0.8304,-1.1557 1.1075,-1.7559 z m 28.791,0 12.0527,0 0,4.9414 -7.7578,0 0,7.0645 c 0.554,-0.4155 1.1551,-0.7847 1.8477,-1.0156 0.3232,-0.1385 0.6924,-0.1849 1.0156,-0.1387 2.5858,0 3.9703,1.4777 4.709,3.0938 0.7388,1.616 0.832,3.3697 0.832,3.9238 l 0,7.5722 c 0,1.6169 -0.093,3.7871 -0.9707,5.5879 -0.8773,1.8469 -2.5397,3.2793 -5.541,3.2793 -3.0937,0 -4.6637,-1.4332 -5.541,-3.4648 -0.8773,-1.9855 -0.9688,-4.5246 -0.9688,-6.7871 l 4.9864,0 0,1.3398 c 0,1.7085 0.093,2.9083 0.3242,3.5547 0.2308,0.6926 0.5989,1.0156 1.1992,1.0156 0.5079,0 0.9235,-0.3223 1.1543,-0.9687 0.2309,-0.6464 0.3691,-1.8474 0.3691,-3.5567 l 0,-7.5722 c 0,-1.4314 -0.5063,-2.4922 -1.5683,-2.4922 -0.5541,0 -1.0174,0.4159 -1.3868,0.9238 -0.3694,0.5541 -0.5527,1.199 -0.5527,1.5684 l -4.2031,0 z m 17.1504,0 12.5586,0 0,4.9883 -4.9864,28.9492 -5.1718,0 5.08,-28.9961 -7.4804,0 z m -32.7539,0.059 0,20.4688 c -1.5892,-0.427 -2.5481,-1.4846 -3.1172,-2.6582 -0.7387,-1.5237 -0.832,-3.3695 -0.832,-4.293 l 0,-6.6035 c 0,-0.7849 0.093,-2.6308 0.9707,-4.293 0.5904,-1.0877 1.5073,-2.0809 2.9785,-2.6211 z m -167.6035,64.8438 c 1.172,-2.3442 0.5254,-6.3985 2.7636,-8.6367 1.9014,-1.9014 4.1982,-3.0768 6.5645,-4.2598 0.8062,-0.4036 2.0719,0.1729 2.8789,-0.2305 0.9891,-0.4947 1.28,-1.5103 1.957,-2.1875 0.4308,-0.4308 4.8555,-0.5567 5.4121,0 1.2189,1.2189 -0.369,2.0488 0.6914,3.1094 0.9446,0.9444 3.3215,-1.8714 4.2344,-0.9121 1.6459,-0.8229 2.9931,-2.2299 5.0488,-3.2578 2.0165,-1.0082 6.7951,2.3239 4.8848,4.2344 -2.3134,2.3132 -5.9488,5.3862 -7.4902,8.4687 -1.9218,3.844 2.636,1.9225 3.7441,0.8145 0.6978,-0.6978 3.868,1.6688 5.0488,0.4882 3.1199,-3.12 1.474,-14.9915 3.42,-16.9375 0.6417,-0.6417 2.1007,0.1807 2.6054,-0.3242 0.8574,-0.8572 -1.7319,-1.7331 -1.9531,-1.9551 -0.8126,-0.8123 0.3964,-4.4162 -0.1641,-5.5371 -0.5772,-1.1548 -3.7441,-1.909 -3.7441,-3.7441 0,-1.3645 2.6007,-2.6055 3.9082,-2.6055 4.213,0 10.0915,0.3201 12.8652,3.0938 1.2933,1.2934 -1.9456,16.4378 3.2559,11.2363 0.5725,-0.5725 0.7043,-1.8441 1.3027,-2.4434 1.5051,-1.5045 4.9099,-0.5112 6.3516,-1.9531 3.3062,-3.3061 -7.2686,-11.8291 -8.793,-13.3535 -1.2005,-1.2005 3.5219,-3.48 2.4414,-4.5605 -0.2506,-0.2507 -3.8689,-1.2173 -3.582,-1.7911 2.431,-4.8621 10.0833,-3.8445 14.3301,-6.6757 2.4593,-1.6395 3.3693,-2.9073 6.3515,-4.3985 2.7238,-1.3618 1.4659,3.2583 5.0489,1.4668 0.5631,-0.2815 2.5434,-4.2244 4.5156,-4.4433 0.4552,-0.05 0.909,0.098 1.3457,0.5351 2.0845,2.0846 14.1414,2.7166 15.6328,5.6992 0.5278,1.0559 -1.7812,2.7637 -2.4414,3.0938 -5.1977,2.5988 0.6014,3.0449 0.6504,3.0937 0.4257,0.4261 0.1621,2.1481 0.1621,2.7696 0,0.5812 -1.1337,0.4768 -1.4648,1.1386 -0.3139,0.6279 -0.1107,3.6898 0.3261,3.9082 2.1452,1.0726 11.657,0.7181 13.1895,-0.8144 0.3399,-0.3398 -0.9763,-2.1157 -1.1387,-2.4414 -0.6059,-1.2118 1.4175,-2.4906 0.6504,-3.2578 -0.3392,-0.3393 -2.9423,-1.292 -1.6289,-2.6055 1.3766,-1.3766 4.7392,0.4718 6.0254,-0.8144 1.0489,-1.0493 0.051,-3.4687 1.1406,-4.5586 1.8428,-1.8429 3.8789,-0.9619 6.5137,-2.2793 0.9834,-0.4918 3.6203,-3.2397 4.8848,-2.6075 3.1519,1.5764 -2.6179,3.7409 0.3261,5.2129 1.1831,0.5915 4.026,-1.233 4.5606,-0.164 0.3974,0.7928 0.086,1.9655 0.4883,2.7695 0.4302,0.8624 1.1937,1.0311 1.4648,2.1152 0.1027,0.4108 -2.2761,4e-4 -3.2559,0.4903 -1.6723,0.8361 -4.0242,4.7881 -4.8867,6.5136 -1.3279,2.6555 1.5977,2.9609 -3.4199,7.9786 -1.1786,1.1786 -3.9841,-1.2269 -4.3965,-0.8145 -1.6143,1.6144 -0.1084,5.9199 -1.1387,7.9805 -0.6573,1.3145 -1.1162,0.6379 -2.1171,1.1386 -0.769,0.384 0.016,2.101 -0.4883,2.6055 -0.8009,0.8009 -3.0648,0.9496 -3.9082,1.793 -0.4337,0.4335 -0.6798,3.4475 -1.9551,4.7226 -7.0883,7.0885 -4.8798,0.3243 -8.1426,0.3243 -0.9967,0 -3.315,1.5126 -2.6055,2.9316 3.6683,7.3366 8.9868,2.7974 11.0743,4.8848 1.6783,1.6783 2.4332,5.1699 -1.6289,4.3984 -0.1576,0.039 -7.2855,1.8698 -7.4903,2.2793 -0.8507,1.7013 2.8183,2.7068 3.2559,3.582 0.8596,1.719 3.171,5.4504 4.5605,6.8399 1.5068,1.5069 4.2065,0.5962 5.211,2.6054 3.7602,7.5203 -2.7142,7.0556 -4.2344,10.0957 -2.3765,4.7533 5.9079,4.9314 7.166,6.1895 0.5882,0.5882 -1.3123,1.2951 -0.9785,1.6289 2.6123,2.6124 2.7406,9.5813 3.9082,10.748 0.5576,0.558 1.8965,-4.1758 2.2812,-4.5605 1.8713,-1.8713 5.215,-3.2588 8.4668,-4.8848 2.1567,-1.0782 2.452,-5.0576 3.9082,-6.5136 0.6694,-0.6696 2.5914,1.5986 2.9317,2.2793 2.0298,4.0594 -2.5709,5.5025 -3.9082,6.8398 -0.095,0.095 1.3561,3.8528 -0.3262,5.5352 -1.0786,1.0786 -4.64,-0.569 -5.8613,0.6523 -2.8635,2.8637 4.0419,3.3916 5.2109,4.5606 0.401,0.4012 -2.6586,4.8315 -0.6523,6.8378 1.5871,1.5871 11.0867,-1.315 5.2109,4.5606 -2.8445,2.8456 -7.4707,-0.02 -10.4219,2.9316 -1.5177,1.5175 -7.3186,12.375 -9.7695,12.375 -0.2325,0 -1.7624,-2.7981 -2.2812,-2.2793 -4.017,4.017 -11.6906,5.5029 -15.6329,9.4453 -0.6975,0.6969 -2.0076,-0.5433 -2.6054,0.6524 -4.8211,9.6423 10.4218,2.3935 10.4218,9.4433 0,2.1395 -5.4985,7.7429 -7.4902,11.7266 -1.1859,2.3714 -0.2532,10.8748 -2.6055,12.0508 -1.0237,0.5118 -0.8791,-16.4822 -5.5371,-7.166 -0.8241,1.648 -1.8255,2.9986 -2.6054,4.5586 -0.972,1.9439 -3.4936,8.6455 -2.2793,11.0742 0.9413,1.8824 13.8186,-4.8383 6.5136,9.7715 -0.5147,1.0296 -1.4322,3.3856 -2.2812,4.2343 -6.3278,6.3279 -15.1852,2.0557 -22.7969,5.8614 -1.7065,0.8532 -3.2949,4.542 -5.8633,3.2578 -1.9722,-0.9862 2.3744,-3.8149 0.3262,-5.8633 -5.3436,-5.3436 -6.0141,0.477 -9.1191,3.582 -1.4766,1.4767 -1.9474,-1.6359 -2.9317,-0.6503 -1.2322,1.2313 -15.3594,4.8341 -17.2617,2.9316 -0.5601,-0.5601 -2.9376,-9.1151 -1.9551,-10.0977 0.4058,-0.4058 4.5322,-3.2841 3.584,-4.2324 -1.2638,-1.2639 -4.8335,-0.5992 -6.1894,-1.9551 -1.8505,-1.8505 -2.0728,-4.6204 -4.5586,-5.8632 -0.8021,-0.4011 -3.0288,0.9785 -4.2344,0.9785 -0.7708,0 -3.0343,-1.2001 -3.582,-0.6524 -0.7846,0.7854 0.2212,3.6871 -0.6524,4.5606 -0.5144,0.5145 -1.2963,-1.3028 -1.9531,-1.3028 -7.7055,0 -6.7695,-4.7458 -9.4453,-10.0976 -1.1064,-2.2129 -3.9412,-1.9861 -5.211,-3.2559 -1.3626,-1.3626 -5.2879,1.878 -3.5839,3.5821 1.6802,1.6801 5.6002,1.0395 7.4921,2.9316 0.2303,0.2302 0,1.9174 0,2.2793 0,4.4136 -4.0818,1.0539 -5.5371,0.3262 -8.5919,-4.296 -19.1444,6.9124 -23.125,2.9316 -9.5362,-9.536 10.1442,-27.637 0,-37.7812 -0.9483,-0.9486 -0.6974,-3.7893 -0.9765,-5.211 -4.5644,-6.0861 0.8608,-12.1454 3.582,-17.5879 1.1846,-2.3692 -1.3077,-7.0122 -2.2793,-8.9551 m 177.2246,-82.3652 63.3067,0 0,181.9219 -63.3067,0 z m -154.791,238.3555 15.2383,0 19.748,48.9902 -16.3281,0 -2.9531,-8.6074 -4.1914,0 0,-10.7793 0.5351,0 -1.0117,-3.2188 c -0.4665,-1.5864 -0.8795,-2.9624 -1.2422,-4.1289 -0.363,-1.1664 -0.7006,-2.2153 -1.0117,-3.1484 -0.259,-0.9332 -0.4898,-1.7729 -0.6973,-2.5195 -0.2073,-0.7931 -0.3895,-1.6094 -0.5449,-2.4492 -0.1555,0.8398 -0.3396,1.6561 -0.5469,2.4492 -0.2072,0.7932 -0.4641,1.6549 -0.7754,2.5879 -0.2587,0.9333 -0.5706,1.9839 -0.9335,3.1504 -0.3629,1.1665 -0.7759,2.5187 -1.2422,4.0585 l -1.0117,3.2188 0.83,0 0,10.7793 -4.4863,0 -2.9551,8.6074 -16.1719,0 z m 47.9238,0 14.8809,0 0,11.0586 -0.033,0 0,10.707 0.033,0 0,10.709 -0.033,0 0,16.5156 -14.8477,0 z m 22.1211,0 2.2129,0 c 3.1618,0 6.0393,0.3035 8.6309,0.9101 2.6436,0.5599 4.8976,1.4707 6.7636,2.7305 1.8659,1.2598 3.2926,2.9158 4.2774,4.9688 1.0366,2.0062 1.5547,4.4547 1.5547,7.3476 0,3.686 -0.8803,6.6945 -2.6426,9.0274 -1.7623,2.3329 -4.148,4.1073 -7.1543,5.3203 l 10.8848,18.6855 -16.8711,0 -7.6563,-14.2637 0,-12.9609 1.5918,0 c 2.4881,0 4.2485,-0.4654 5.2852,-1.3984 1.0367,-0.9333 1.5566,-2.2858 1.5566,-4.0586 0,-1.5398 -0.5199,-2.7994 -1.5566,-3.7793 -0.9849,-0.9797 -2.6685,-1.4707 -5.0528,-1.4707 l -1.8242,0 z m 54.0606,0 15.2382,0 19.7481,48.9902 -16.3262,0 -2.9551,-8.6074 -4.166,0 0,-10.7793 0.5118,0 -1.0098,-3.2188 c -0.4665,-1.5864 -0.8833,-2.9624 -1.2461,-4.1289 -0.3627,-1.1664 -0.6989,-2.2153 -1.0098,-3.1484 -0.2592,-0.9332 -0.4918,-1.7729 -0.6992,-2.5195 -0.2073,-0.7931 -0.3894,-1.6094 -0.5449,-2.4492 -0.1555,0.8398 -0.3356,1.6561 -0.543,2.4492 -0.2073,0.7932 -0.4683,1.6549 -0.7793,2.5879 -0.2591,0.9333 -0.5709,1.9839 -0.9336,3.1504 -0.3629,1.1665 -0.7757,2.5187 -1.2422,4.0585 l -1.0117,3.2188 0.8828,0 0,10.7793 -4.5351,0 -2.9551,8.6074 -16.1719,0 z m 47.9238,0 15.2383,0 0,37.164 24.1035,0 0,11.8262 -39.3418,0 z m -136.5332,66.8945 c 4.6649,0 8.708,0.4907 12.1289,1.4707 3.4729,0.9797 6.6599,2.3796 9.5625,4.1992 l -7.3066,10.6368 c -2.436,-1.4931 -4.8743,-2.6347 -7.3106,-3.4278 -2.4361,-0.7932 -5.0522,-1.1914 -7.8516,-1.1914 -2.2801,0 -3.784,0.2801 -4.5097,0.8399 -0.7258,0.56 -1.0879,1.2835 -1.0879,2.1699 0,0.4666 0.1295,0.8884 0.3887,1.2617 0.3111,0.3266 0.8027,0.652 1.4765,0.9785 0.6737,0.2799 1.5825,0.5818 2.7227,0.9082 1.1404,0.2801 2.5892,0.6092 4.3515,0.9824 3.421,0.7465 6.3773,1.5627 8.8653,2.4493 2.4878,0.8864 4.5338,1.9352 6.1406,3.1484 1.6069,1.2131 2.7987,2.6601 3.5762,4.3398 0.7774,1.6796 1.1679,3.661 1.1679,5.9473 0,2.7994 -0.5705,5.2028 -1.7109,7.209 -1.0885,2.0063 -2.6426,3.6407 -4.6641,4.9004 -1.9695,1.2599 -4.3289,2.1923 -7.0761,2.7988 -2.7471,0.6066 -5.7541,0.9082 -9.0196,0.9082 -4.4059,0 -8.6288,-0.5599 -12.6718,-1.6797 -3.9911,-1.1665 -7.4112,-2.588 -10.2617,-4.2676 l 7.3066,-10.6386 c 0.9848,0.6065 2.1262,1.2155 3.4219,1.8222 1.3477,0.5598 2.7195,1.0706 4.1191,1.5371 1.4513,0.4666 2.9042,0.8393 4.3555,1.1192 1.4513,0.2799 2.799,0.4199 4.0429,0.4199 2.6955,0 4.5347,-0.2327 5.5196,-0.6992 1.0366,-0.4666 1.5566,-1.2828 1.5566,-2.4492 0,-0.4665 -0.1559,-0.8865 -0.4668,-1.2598 -0.2592,-0.3732 -0.7528,-0.7221 -1.4785,-1.0488 -0.6738,-0.3733 -1.6066,-0.7242 -2.7988,-1.0508 -1.1921,-0.3732 -2.6956,-0.7458 -4.5098,-1.1191 -3.2656,-0.6999 -6.1166,-1.4471 -8.5527,-2.2403 -2.4362,-0.7933 -4.4576,-1.7729 -6.0645,-2.9394 -1.6068,-1.2131 -2.825,-2.6602 -3.6543,-4.3399 -0.7777,-1.6797 -1.166,-3.7536 -1.166,-6.2265 0,-2.2863 0.4937,-4.3859 1.4785,-6.2989 1.0366,-1.9131 2.4856,-3.5473 4.3516,-4.9004 1.8659,-1.353 4.1222,-2.4037 6.7656,-3.1503 2.6436,-0.7466 5.5977,-1.1192 8.8633,-1.1192 z m 37.0371,0.7695 41.6738,0 0,11.4082 -26.7461,0 0,6.5098 16.0938,0 0,11.2656 -16.0938,0 0,8.4004 27.2891,0 0,11.4063 -42.2168,0 z m 73.6016,0 15.2382,0 19.7481,48.9903 -16.3262,0 -2.9551,-8.6074 -4.1855,0 0,-10.7774 0.5293,0 -1.0098,-3.2187 c -0.4663,-1.5863 -0.8812,-2.9644 -1.2441,-4.1309 -0.3628,-1.1662 -0.699,-2.2152 -1.0098,-3.1484 -0.2593,-0.9333 -0.4918,-1.7749 -0.6992,-2.5215 -0.2073,-0.793 -0.3895,-1.6093 -0.5449,-2.4492 -0.1556,0.8399 -0.3377,1.6562 -0.5449,2.4492 -0.2074,0.7933 -0.4664,1.6587 -0.7774,2.5918 -0.2591,0.9332 -0.5706,1.982 -0.9336,3.1484 -0.3627,1.1664 -0.7757,2.521 -1.2422,4.0606 l -1.0117,3.2187 0.8633,0 0,10.7774 -4.5176,0 -2.9551,8.6074 -16.1718,0 z m 49.6484,103.045 0,34.2265 c -0.8065,-0.2003 -1.4997,-0.5114 -2.0469,-0.9218 -0.9235,-0.6926 -1.5238,-1.6156 -1.9394,-2.5391 -0.5079,-1.062 -0.7841,-2.3094 -0.8301,-3.6484 l 0,-19.9942 c 0.046,-1.3851 0.3222,-2.6313 0.8301,-3.6933 0.4156,-0.9234 1.0159,-1.7996 1.9394,-2.4922 0.5473,-0.4378 1.2403,-0.7459 2.0469,-0.9375 z m -19.7285,0.07 0,34.084 c -0.6693,-0.2027 -1.2445,-0.4938 -1.7188,-0.8496 -0.9235,-0.6926 -1.5238,-1.6156 -1.9394,-2.5391 -0.5079,-1.062 -0.786,-2.3094 -0.832,-3.6484 l 0,-19.9942 c 0.046,-1.3851 0.3241,-2.6313 0.832,-3.6933 0.4156,-0.9234 1.0159,-1.7996 1.9394,-2.4922 0.4743,-0.3795 1.0496,-0.6708 1.7188,-0.8672 z m 4.3613,0.016 c 0.6312,0.1962 1.1713,0.4839 1.6309,0.8516 0.9235,0.6926 1.5686,1.5688 1.9844,2.4922 0.5072,1.062 0.786,2.3082 0.832,3.6933 l 0,19.9942 c -0.046,1.339 -0.3248,2.5864 -0.832,3.6484 -0.4158,0.9235 -1.0609,1.8465 -1.9844,2.5391 -0.4596,0.3447 -0.9997,0.6301 -1.6309,0.832 z m -28.709,0.066 13.5274,0 0,4.9395 -7.8946,0 c 1.2929,2.1701 3.2324,5.6331 4.8946,9.5117 1.6161,3.8324 2.9082,7.9432 2.9082,11.4062 0,2.3548 -0.369,4.4782 -1.3848,6.002 -1.0159,1.4775 -2.7242,2.4472 -5.2637,2.4472 -2.7243,0 -4.3858,-1.0616 -5.3554,-2.6777 -0.9696,-1.6161 -1.293,-3.8332 -1.293,-6.0957 l 0,-2.3555 4.9863,0 0,2.3555 c 0,1.1081 0.091,2.1233 0.3223,2.9082 0.2309,0.7388 0.6471,1.2481 1.3398,1.2481 0.7387,0 1.1539,-0.5999 1.3848,-1.3848 0.2314,-0.785 0.2774,-1.8481 0.2774,-2.7715 -0.046,-2.0778 -0.6467,-4.3853 -1.4317,-6.7402 -0.7849,-2.3549 -1.8013,-4.6636 -2.8633,-6.6953 -1.2466,-2.401 -2.6306,-4.8034 -4.1543,-7.1582 z m 59.7227,0 5.1719,0 4.9863,28.9512 0,4.9863 -12.5586,0 0,-4.9414 7.4805,0 z m -11.2871,0.066 c 0.4872,0.1872 0.93,0.4191 1.3047,0.7188 0.9235,0.6926 1.5707,1.5688 1.9863,2.4922 0.5079,1.062 0.7841,2.3082 0.8301,3.6933 l 0,19.9942 c -0.046,1.339 -0.3222,2.5864 -0.8301,3.6484 -0.4156,0.9235 -1.0628,1.8465 -1.9863,2.5391 -0.3747,0.2809 -0.8175,0.5096 -1.3047,0.6992 z m -45.3731,39.0508 63.3086,0 0,181.6719 -63.3086,0 z m -109.1738,13.5918 c 2.405,-0.079 5.2096,3.1198 6.3711,4.2812 0.634,0.634 7.4676,18.2617 8.1738,20.3809 0.4922,1.4768 0.8067,3.4928 0.8067,5.0664 0,8.6284 -0.1175,17.7023 -0.2305,26.5996 0.7631,0.1907 0.5762,2.8495 0.5762,3.8008 0,5.2572 -0.7651,12.405 1.4961,16.9277 1.9745,3.9489 -1.21,9.1265 -4.1446,10.5938 -1.3292,0.6646 -4.0193,-1.3925 -4.8359,-0.5762 -0.6247,0.6247 -1.9125,0.7247 -2.7637,1.1504 -1.2352,0.6176 -1.7283,1.7277 -2.7636,2.7637 -0.5184,0.5176 0.095,5.2293 0.9218,5.6426 0.6473,0.3238 1.8953,0.2839 2.418,0.8066 0.8452,0.8454 1.6257,4.0918 2.4219,7.3008 l 4.1367,5.6543 1.5371,2.082 c 1.7019,-0.334 3.5423,-1.1586 5.0312,-0.4141 1.6407,0.8204 1.8018,2.2627 2.879,3.3399 0.4456,0.4456 0.4713,1.6012 0,2.0722 -0.7313,0.7313 -1.669,1.2345 -2.8399,1.2715 -0.1672,0 -0.3407,8e-4 -0.5176,-0.014 l 0.018,0.01 c -0.2574,0 -2.3211,-0.8159 -3.6855,-1.498 -1.2776,-0.6389 -3.1086,-0.5748 -4.2598,-1.1504 -3.6328,-1.8164 -7.457,-5.9314 -9.4434,-9.9043 -0.4159,-0.8315 -1.4191,-6.3703 -1.4961,-6.4473 -0.8366,-0.8368 -3.0366,0.6489 -3.455,0.2305 -0.4479,-0.4481 -2.4334,-3.5547 -3.4551,-2.5332 -0.7699,0.7701 -1.2916,2.2134 -1.957,2.8789 -0.1731,0.1733 -1.5019,0 -1.7266,0 -0.5074,0 -5.3259,0.3167 -5.7578,-0.1152 -1.2222,-1.2222 2.1159,-7.7586 3.2246,-8.8672 0.3996,-0.3996 1.2982,-0.7218 1.7266,-1.1504 0.2238,-0.2234 -0.1153,-1.1308 -0.1153,-1.2676 0,-2.549 -0.9199,-5.0003 -0.9199,-8.1758 0,-1.5355 0.03,-3.0054 0.2305,-4.4902 l 0.2343,0.3203 c 0.7174,-0.8218 1.5377,-2.6435 1.9532,-3.8906 4.5128,-13.5383 -2.7923,-17.9316 -6.5645,-29.2481 -0.9181,-2.7546 -0.4023,-6.5634 -1.7266,-9.2109 -0.7738,-1.5494 -3.3475,-6.3165 -2.4179,-8.1758 0.6382,-1.2763 1.2533,-3.291 1.6113,-4.7226 0.5756,-2.3024 0.4125,-6.6293 2.0723,-8.2891 1.178,-1.178 3.1593,-2.5831 4.4922,-3.916 0.6293,-0.6294 0.54,-1.8076 1.1504,-2.418 0.7247,-0.7246 2.0283,-1.1359 3.1093,-1.4961 1.9231,-0.6411 5.0613,-3.7417 7.4844,-4.9531 0.3213,-0.1607 0.6564,-0.2387 1,-0.25 z m -54.0957,20.2305 c 2.5344,-0.021 4.6148,0.056 4.8477,0.289 0.4173,0.4173 -1.2633,7.6001 -0.2286,8.6348 0.306,0.3061 2.3433,-2.418 2.7637,-2.418 1.6165,0 0.9042,7.9924 0.459,9.3281 -0.5313,1.594 -6.8006,2.0646 -4.1445,4.7208 2.8081,2.8078 6.2492,0.042 9.3261,-1.4961 0.4895,-0.2447 2.8055,-1.5292 3.2246,-0.6915 1.0657,2.1315 -2.84,8.3499 -4.0293,10.1329 -3.1817,4.7739 5.1817,6.5063 5.1817,10.3632 0,1.8427 -3.1797,0.461 -3.916,0.461 -0.1893,0 -1.6118,-0.4616 -1.8418,-0.6914 -0.7467,-0.7468 -1.121,-2.6318 -2.0723,-3.1074 -3.0733,-1.5367 -2.4552,1.9997 -1.498,3.914 0.2876,0.5753 0.4825,1.3308 0.6914,1.957 0.4306,1.292 0.7104,2.5595 2.3027,2.879 0.3436,-0.6874 4.1353,2.0676 5.2969,2.6484 0.2103,0.1052 -1.851,2.5516 -2.1875,3.2246 -1.4962,2.9923 -2.9119,6.4988 -1.1524,10.0176 0.2912,0.583 0.273,1.654 0.6914,2.0722 0.9156,0.9158 1.4986,2.8254 2.3028,4.0313 2.3011,3.4521 6.4673,4.6436 8.291,8.291 1.2483,2.4962 0.3176,6.2797 1.6113,8.8672 1.4119,2.8236 3.5751,-1.0325 4.6074,0 0.6085,0.6083 1.6062,3.0473 2.418,3.4531 1.4644,0.7323 2.432,-3.4391 3.9141,-1.957 1.0079,1.0081 1.0101,3.5141 1.7285,4.9512 1.0124,2.0233 4.722,5.3843 1.6328,5.4453 -0.2059,0.01 -0.4437,-0.01 -0.7129,-0.033 -1.2289,-0.6143 -2.0009,-2.1528 -3.4531,-2.8789 -2.4662,-1.2331 -5.7589,2.1864 -7.4844,0.4609 -0.3619,-0.3621 -0.2451,-1.2803 -0.4609,-1.4961 -0.1574,-0.1574 -6.0095,1.9337 -7.5996,0.3438 -2.0447,-2.0449 -4.5618,-4.0555 -5.9883,-6.9082 -0.7822,-1.5645 -0.3867,-3.6502 -1.1524,-5.1817 -1.5665,-3.1331 -2.8177,-6.5594 -4.2597,-9.4433 -2.4963,-4.9927 -8.6737,-8.9636 -8.4063,-15.7754 -0.4381,-1.752 -1.4821,-3.5404 -2.3027,-5.1817 -1.8257,-3.6514 -3.9757,-7.9577 -4.9512,-11.8594 -0.7215,-2.8858 -2.8838,-5.3097 -3.8008,-8.0605 -1.4028,-4.2084 4.5051,-8.0326 2.5332,-11.9766 -0.6754,-1.3508 -4.5563,-8.042 -3.7988,-9.5566 1.0883,-2.1768 -0.3333,-5.1941 1.6113,-7.1387 0.2968,-0.2968 5.782,-0.6005 10.0059,-0.6347 z m 60.6289,98.3593 c 0.2421,-0.012 0.6662,0.035 0.7578,0.035 2.9406,0 3.178,9.7646 1.957,12.2051 -0.7554,1.5114 -4.0333,1.959 -5.9863,1.959 -1.3867,0 -2.474,1.2459 -3.916,1.4961 l -0.1152,-0.3458 c 2.1451,0 4.279,-12.4529 7.1406,-15.3144 0.021,-0.021 0.081,-0.031 0.1621,-0.035 z m 46.9356,4.0039 c 0.8332,-0.065 3.4964,0.3715 3.7968,0.5215 1.4305,0.7153 3.6599,0.8755 5.1817,1.3828 1.1887,0.3963 1.0948,1.237 2.0742,1.7266 1.4139,0.7069 3.5977,-0.201 4.7207,0.9219 1.4405,1.4405 1.9483,4.125 2.9941,6.2168 0.5185,1.0368 1.1504,2.6418 1.1504,3.8008 0,3.3386 -5.8354,-0.767 -8.5215,0.5761 -4.3765,2.1883 -6.8126,1.6329 -10.707,5.5274 -1.426,1.4248 0.047,4.6721 -1.498,6.2168 -0.1527,0.1526 -5.5448,-3.4532 -7.8301,-3.4532 -1.4117,0 -4.5894,1.6274 -4.7207,1.4961 -0.8162,-0.8162 -1.8166,-7.9724 -4.2617,-5.5273 -0.2167,0.2167 0.5761,1.5287 0.5761,1.957 0,2.1832 -0.2823,4.0213 -1.1504,5.7578 -0.7947,1.5894 -1.3412,2.6967 -2.8789,4.0313 -2.291,-1.1456 -8.8928,-3.0217 -10.4785,-4.6074 -0.6978,-0.6978 -0.5997,-2.1177 -1.1523,-3.2227 -1.8793,-3.7587 0.464,-6.6802 3.4551,-8.1758 2.6321,-1.3159 8.4406,3.6493 10.7089,1.3809 1.68,-1.68 3.5932,-5.4226 5.4121,-6.332 3.826,-1.9129 7.1501,5.1173 9.0958,4.1445 0.3709,-0.1859 0.8318,-0.2553 1.0371,-0.461 0.8295,-0.8294 1.1359,-3.5393 1.7265,-4.7207 0.5092,-1.0184 3.9543,-3.7223 3.2246,-5.1816 -0.3141,-0.6281 -3.2439,-2.8597 -2.1875,-3.916 0.032,-0.032 0.1134,-0.051 0.2325,-0.061 z m -1.3633,29.8008 c 0.2879,-0.013 0.4848,0.014 0.5547,0.084 1.3036,1.3038 -4.3762,5.5902 -6.9082,5.4922 -0.1688,-0.01 -0.3231,-0.032 -0.461,-0.08 -1.6608,-3.3216 4.799,-5.4024 6.8145,-5.4961 z"
         style="opacity:1;fill:#ffe680;fill-opacity:0.99215686;stroke:#ff5555;stroke-width:2;stroke-linecap:butt;stroke-miterlimit:4;stroke-dasharray:none;stroke-dashoffset:0" />
      <path
         inkscape:connector-curvature="0"
         id="path4428"
         d="m 705.72473,432.56088 -17.0396,0"
         style="fill:none;fill-rule:evenodd;stroke:#ffaaaa;stroke-width:0.9994334px;stroke-linecap:butt;stroke-linejoin:miter;stroke-opacity:1" />
      <path
         inkscape:connector-curvature="0"
         id="path4430"
         d="m 705.72473,467.91638 -17.2161,0"
         style="fill:none;fill-rule:evenodd;stroke:#ffaaaa;stroke-width:0.9994334px;stroke-linecap:butt;stroke-linejoin:miter;stroke-opacity:1" />
      <path
         inkscape:connector-curvature="0"
         id="path4432"
         d="m 705.72473,503.27178 -17.3044,0"
         style="fill:none;fill-rule:evenodd;stroke:#ffaaaa;stroke-width:0.9994334px;stroke-linecap:butt;stroke-linejoin:miter;stroke-opacity:1" />
      <path
         inkscape:connector-curvature="0"
         id="path4434"
         d="m 705.72473,538.62728 -17.3044,0"
         style="fill:none;fill-rule:evenodd;stroke:#ffaaaa;stroke-width:0.9994334px;stroke-linecap:butt;stroke-linejoin:miter;stroke-opacity:1" />
      <path
         inkscape:connector-curvature="0"
         id="path4438"
         d="m 705.72473,408.87268 0,9.8996"
         style="fill:none;fill-rule:evenodd;stroke:#ffaaaa;stroke-width:0.9994334px;stroke-linecap:butt;stroke-linejoin:miter;stroke-opacity:1" />
      <path
         inkscape:connector-curvature="0"
         id="path4440"
         d="m 705.72473,444.40498 0,11.4905"
         style="fill:none;fill-rule:evenodd;stroke:#ffaaaa;stroke-width:0.9994334px;stroke-linecap:butt;stroke-linejoin:miter;stroke-opacity:1" />
      <path
         inkscape:connector-curvature="0"
         id="path4442"
         d="m 705.72473,479.93718 0,12.3744"
         style="fill:none;fill-rule:evenodd;stroke:#ffaaaa;stroke-width:0.9994334px;stroke-linecap:butt;stroke-linejoin:miter;stroke-opacity:1" />
      <path
         inkscape:connector-curvature="0"
         id="path4444"
         d="m 705.72473,517.23718 0,11.8441"
         style="fill:none;fill-rule:evenodd;stroke:#ffaaaa;stroke-width:0.9994334px;stroke-linecap:butt;stroke-linejoin:miter;stroke-opacity:1" />
      <path
         inkscape:connector-curvature="0"
         id="path4446"
         d="m 705.72473,551.35518 0,11.6673"
         style="fill:none;fill-rule:evenodd;stroke:#ffaaaa;stroke-width:0.9994334px;stroke-linecap:butt;stroke-linejoin:miter;stroke-opacity:1" />
      <path
         inkscape:connector-curvature="0"
         id="path4428-2"
         d="m 981.71823,432.56088 17.0395,0"
         style="fill:none;fill-rule:evenodd;stroke:#ffaaaa;stroke-width:0.9994334px;stroke-linecap:butt;stroke-linejoin:miter;stroke-opacity:1" />
      <path
         inkscape:connector-curvature="0"
         id="path4430-4"
         d="m 981.71823,467.91638 17.2161,0"
         style="fill:none;fill-rule:evenodd;stroke:#ffaaaa;stroke-width:0.9994334px;stroke-linecap:butt;stroke-linejoin:miter;stroke-opacity:1" />
      <path
         inkscape:connector-curvature="0"
         id="path4432-3"
         d="m 981.71823,503.27178 17.3044,0"
         style="fill:none;fill-rule:evenodd;stroke:#ffaaaa;stroke-width:0.9994334px;stroke-linecap:butt;stroke-linejoin:miter;stroke-opacity:1" />
      <path
         inkscape:connector-curvature="0"
         id="path4434-2"
         d="m 981.71823,538.62728 17.3044,0"
         style="fill:none;fill-rule:evenodd;stroke:#ffaaaa;stroke-width:0.9994334px;stroke-linecap:butt;stroke-linejoin:miter;stroke-opacity:1" />
      <path
         inkscape:connector-curvature="0"
         id="path4438-4"
         d="m 981.71823,408.87268 0,9.8996"
         style="fill:none;fill-rule:evenodd;stroke:#ffaaaa;stroke-width:0.9994334px;stroke-linecap:butt;stroke-linejoin:miter;stroke-opacity:1" />
      <path
         inkscape:connector-curvature="0"
         id="path4440-8"
         d="m 981.71823,444.40498 0,11.4905"
         style="fill:none;fill-rule:evenodd;stroke:#ffaaaa;stroke-width:0.9994334px;stroke-linecap:butt;stroke-linejoin:miter;stroke-opacity:1" />
      <path
         inkscape:connector-curvature="0"
         id="path4442-6"
         d="m 981.71823,479.93718 0,12.3744"
         style="fill:none;fill-rule:evenodd;stroke:#ffaaaa;stroke-width:0.9994334px;stroke-linecap:butt;stroke-linejoin:miter;stroke-opacity:1" />
      <path
         inkscape:connector-curvature="0"
         id="path4444-4"
         d="m 981.71823,517.23718 0,11.8441"
         style="fill:none;fill-rule:evenodd;stroke:#ffaaaa;stroke-width:0.9994334px;stroke-linecap:butt;stroke-linejoin:miter;stroke-opacity:1" />
      <path
         inkscape:connector-curvature="0"
         id="path4446-5"
         d="m 981.71823,551.35518 0,11.6673"
         style="fill:none;fill-rule:evenodd;stroke:#ffaaaa;stroke-width:0.9994334px;stroke-linecap:butt;stroke-linejoin:miter;stroke-opacity:1" />
      <path
         inkscape:connector-curvature="0"
         id="path4428-25"
         d="m 705.69153,-21.503524 -17.0396,0"
         style="fill:none;fill-rule:evenodd;stroke:#ffaaaa;stroke-width:0.9994334px;stroke-linecap:butt;stroke-linejoin:miter;stroke-opacity:1" />
      <path
         inkscape:connector-curvature="0"
         id="path4430-48"
         d="m 705.69153,13.851976 -17.2161,0"
         style="fill:none;fill-rule:evenodd;stroke:#ffaaaa;stroke-width:0.9994334px;stroke-linecap:butt;stroke-linejoin:miter;stroke-opacity:1" />
      <path
         inkscape:connector-curvature="0"
         id="path4432-1"
         d="m 705.69153,49.207376 -17.3044,0"
         style="fill:none;fill-rule:evenodd;stroke:#ffaaaa;stroke-width:0.9994334px;stroke-linecap:butt;stroke-linejoin:miter;stroke-opacity:1" />
      <path
         inkscape:connector-curvature="0"
         id="path4434-3"
         d="m 705.69153,84.562876 -17.3044,0"
         style="fill:none;fill-rule:evenodd;stroke:#ffaaaa;stroke-width:0.9994334px;stroke-linecap:butt;stroke-linejoin:miter;stroke-opacity:1" />
      <path
         inkscape:connector-curvature="0"
         id="path4438-2"
         d="m 705.69153,-45.191624 0,9.8995"
         style="fill:none;fill-rule:evenodd;stroke:#ffaaaa;stroke-width:0.9994334px;stroke-linecap:butt;stroke-linejoin:miter;stroke-opacity:1" />
      <path
         inkscape:connector-curvature="0"
         id="path4440-0"
         d="m 705.69153,-9.6594238 0,11.4905"
         style="fill:none;fill-rule:evenodd;stroke:#ffaaaa;stroke-width:0.9994334px;stroke-linecap:butt;stroke-linejoin:miter;stroke-opacity:1" />
      <path
         inkscape:connector-curvature="0"
         id="path4442-64"
         d="m 705.69153,25.872776 0,12.3744"
         style="fill:none;fill-rule:evenodd;stroke:#ffaaaa;stroke-width:0.9994334px;stroke-linecap:butt;stroke-linejoin:miter;stroke-opacity:1" />
      <path
         inkscape:connector-curvature="0"
         id="path4444-0"
         d="m 705.69153,63.172776 0,11.8441"
         style="fill:none;fill-rule:evenodd;stroke:#ffaaaa;stroke-width:0.9994334px;stroke-linecap:butt;stroke-linejoin:miter;stroke-opacity:1" />
      <path
         inkscape:connector-curvature="0"
         id="path4446-9"
         d="m 705.69153,97.290776 0,11.667404"
         style="fill:none;fill-rule:evenodd;stroke:#ffaaaa;stroke-width:0.9994334px;stroke-linecap:butt;stroke-linejoin:miter;stroke-opacity:1" />
      <path
         inkscape:connector-curvature="0"
         id="path4428-2-3"
         d="m 981.68503,-21.503524 17.0395,0"
         style="fill:none;fill-rule:evenodd;stroke:#ffaaaa;stroke-width:0.9994334px;stroke-linecap:butt;stroke-linejoin:miter;stroke-opacity:1" />
      <path
         inkscape:connector-curvature="0"
         id="path4430-4-6"
         d="m 981.68503,13.851976 17.2161,0"
         style="fill:none;fill-rule:evenodd;stroke:#ffaaaa;stroke-width:0.9994334px;stroke-linecap:butt;stroke-linejoin:miter;stroke-opacity:1" />
      <path
         inkscape:connector-curvature="0"
         id="path4432-3-6"
         d="m 981.68503,49.207376 17.3044,0"
         style="fill:none;fill-rule:evenodd;stroke:#ffaaaa;stroke-width:0.9994334px;stroke-linecap:butt;stroke-linejoin:miter;stroke-opacity:1" />
      <path
         inkscape:connector-curvature="0"
         id="path4434-2-3"
         d="m 981.68503,84.562876 17.3044,0"
         style="fill:none;fill-rule:evenodd;stroke:#ffaaaa;stroke-width:0.9994334px;stroke-linecap:butt;stroke-linejoin:miter;stroke-opacity:1" />
      <path
         inkscape:connector-curvature="0"
         id="path4438-4-0"
         d="m 981.68503,-45.191624 0,9.8995"
         style="fill:none;fill-rule:evenodd;stroke:#ffaaaa;stroke-width:0.9994334px;stroke-linecap:butt;stroke-linejoin:miter;stroke-opacity:1" />
      <path
         inkscape:connector-curvature="0"
         id="path4440-8-5"
         d="m 981.68503,-9.6594238 0,11.4905"
         style="fill:none;fill-rule:evenodd;stroke:#ffaaaa;stroke-width:0.9994334px;stroke-linecap:butt;stroke-linejoin:miter;stroke-opacity:1" />
      <path
         inkscape:connector-curvature="0"
         id="path4442-6-6"
         d="m 981.68503,25.872776 0,12.3744"
         style="fill:none;fill-rule:evenodd;stroke:#ffaaaa;stroke-width:0.9994334px;stroke-linecap:butt;stroke-linejoin:miter;stroke-opacity:1" />
      <path
         inkscape:connector-curvature="0"
         id="path4444-4-3"
         d="m 981.68503,63.172776 0,11.8441"
         style="fill:none;fill-rule:evenodd;stroke:#ffaaaa;stroke-width:0.9994334px;stroke-linecap:butt;stroke-linejoin:miter;stroke-opacity:1" />
      <path
         inkscape:connector-curvature="0"
         id="path4446-5-5"
         d="m 981.68503,97.290776 0,11.667404"
         style="fill:none;fill-rule:evenodd;stroke:#ffaaaa;stroke-width:0.9994334px;stroke-linecap:butt;stroke-linejoin:miter;stroke-opacity:1" />
      <path
         inkscape:connector-curvature="0"
         id="path4709"
         d="m 740.31083,-57.173224 28.4611,0"
         style="fill:none;fill-rule:evenodd;stroke:#000000;stroke-width:1px;stroke-linecap:butt;stroke-linejoin:miter;stroke-opacity:1" />
      <path
         inkscape:connector-curvature="0"
         id="path4709-2"
         d="m 800.31083,-57.173224 28.4611,0"
         style="fill:none;fill-rule:evenodd;stroke:#000000;stroke-width:1px;stroke-linecap:butt;stroke-linejoin:miter;stroke-opacity:1" />
      <path
         inkscape:connector-curvature="0"
         id="path4709-7"
         d="m 862.31083,-57.173224 28.4611,0"
         style="fill:none;fill-rule:evenodd;stroke:#000000;stroke-width:1px;stroke-linecap:butt;stroke-linejoin:miter;stroke-opacity:1" />
      <path
         inkscape:connector-curvature="0"
         id="path4709-2-7"
         d="m 922.31083,-57.173224 28.4611,0"
         style="fill:none;fill-rule:evenodd;stroke:#000000;stroke-width:1px;stroke-linecap:butt;stroke-linejoin:miter;stroke-opacity:1" />
      <path
         inkscape:connector-curvature="0"
         id="path4709-77"
         d="m 741.50823,121.12068 28.4611,0"
         style="fill:none;fill-rule:evenodd;stroke:#000000;stroke-width:1px;stroke-linecap:butt;stroke-linejoin:miter;stroke-opacity:1" />
      <path
         inkscape:connector-curvature="0"
         id="path4709-2-2"
         d="m 801.50823,121.12068 28.4611,0"
         style="fill:none;fill-rule:evenodd;stroke:#000000;stroke-width:1px;stroke-linecap:butt;stroke-linejoin:miter;stroke-opacity:1" />
      <path
         inkscape:connector-curvature="0"
         id="path4709-7-5"
         d="m 863.50823,121.12068 28.4611,0"
         style="fill:none;fill-rule:evenodd;stroke:#000000;stroke-width:1px;stroke-linecap:butt;stroke-linejoin:miter;stroke-opacity:1" />
      <path
         inkscape:connector-curvature="0"
         id="path4709-2-7-7"
         d="m 923.50823,121.12068 28.4611,0"
         style="fill:none;fill-rule:evenodd;stroke:#000000;stroke-width:1px;stroke-linecap:butt;stroke-linejoin:miter;stroke-opacity:1" />
      <path
         inkscape:connector-curvature="0"
         id="path4709-70"
         d="m 741.46003,396.97558 28.4611,0"
         style="fill:none;fill-rule:evenodd;stroke:#000000;stroke-width:1px;stroke-linecap:butt;stroke-linejoin:miter;stroke-opacity:1" />
      <path
         inkscape:connector-curvature="0"
         id="path4709-2-77"
         d="m 801.46003,396.97558 28.4611,0"
         style="fill:none;fill-rule:evenodd;stroke:#000000;stroke-width:1px;stroke-linecap:butt;stroke-linejoin:miter;stroke-opacity:1" />
      <path
         inkscape:connector-curvature="0"
         id="path4709-7-7"
         d="m 863.46003,396.97558 28.4611,0"
         style="fill:none;fill-rule:evenodd;stroke:#000000;stroke-width:1px;stroke-linecap:butt;stroke-linejoin:miter;stroke-opacity:1" />
      <path
         inkscape:connector-curvature="0"
         id="path4709-2-7-5"
         d="m 923.46003,396.97558 28.4611,0"
         style="fill:none;fill-rule:evenodd;stroke:#000000;stroke-width:1px;stroke-linecap:butt;stroke-linejoin:miter;stroke-opacity:1" />
      <path
         inkscape:connector-curvature="0"
         id="path4709-0"
         d="m 737.37603,575.18728 28.4611,0"
         style="fill:none;fill-rule:evenodd;stroke:#000000;stroke-width:1px;stroke-linecap:butt;stroke-linejoin:miter;stroke-opacity:1" />
      <path
         inkscape:connector-curvature="0"
         id="path4709-2-79"
         d="m 797.37603,575.18728 28.4611,0"
         style="fill:none;fill-rule:evenodd;stroke:#000000;stroke-width:1px;stroke-linecap:butt;stroke-linejoin:miter;stroke-opacity:1" />
      <path
         inkscape:connector-curvature="0"
         id="path4709-7-6"
         d="m 859.37603,575.18728 28.4611,0"
         style="fill:none;fill-rule:evenodd;stroke:#000000;stroke-width:1px;stroke-linecap:butt;stroke-linejoin:miter;stroke-opacity:1" />
      <path
         inkscape:connector-curvature="0"
         id="path4709-2-7-4"
         d="m 919.37603,575.18728 28.4611,0"
         style="fill:none;fill-rule:evenodd;stroke:#000000;stroke-width:1px;stroke-linecap:butt;stroke-linejoin:miter;stroke-opacity:1" />
    </g>
    <g
       id="g5319"
       transform="matrix(0.22616727,0,0,0.22616727,395.80959,851.06686)"
       style="fill:#ffe680;stroke:#d45500">
      <g
         id="g5279"
         style="fill:#ffe680;stroke:#d45500">
        <path
           id="path5281"
           d="M 242.606,0 C 142.124,0 60.651,81.473 60.651,181.955 c 0,40.928 13.504,78.659 36.31,109.075 L 242.607,485.213 388.252,291.03 c 22.808,-30.416 36.31,-68.146 36.31,-109.075 C 424.562,81.473 343.089,0 242.606,0 Z m 0,303.257 c -66.989,0 -121.302,-54.311 -121.302,-121.302 0,-66.989 54.313,-121.304 121.302,-121.304 66.991,0 121.302,54.315 121.302,121.304 0,66.992 -54.31,121.302 -121.302,121.302 z"
           inkscape:connector-curvature="0"
           style="fill:#ffe680;stroke:#d45500" />
      </g>
      <g
         id="g5283"
         style="fill:#ffe680;stroke:#d45500" />
      <g
         id="g5285"
         style="fill:#ffe680;stroke:#d45500" />
      <g
         id="g5287"
         style="fill:#ffe680;stroke:#d45500" />
      <g
         id="g5289"
         style="fill:#ffe680;stroke:#d45500" />
      <g
         id="g5291"
         style="fill:#ffe680;stroke:#d45500" />
      <g
         id="g5293"
         style="fill:#ffe680;stroke:#d45500" />
      <g
         id="g5295"
         style="fill:#ffe680;stroke:#d45500" />
      <g
         id="g5297"
         style="fill:#ffe680;stroke:#d45500" />
      <g
         id="g5299"
         style="fill:#ffe680;stroke:#d45500" />
      <g
         id="g5301"
         style="fill:#ffe680;stroke:#d45500" />
      <g
         id="g5303"
         style="fill:#ffe680;stroke:#d45500" />
      <g
         id="g5305"
         style="fill:#ffe680;stroke:#d45500" />
      <g
         id="g5307"
         style="fill:#ffe680;stroke:#d45500" />
      <g
         id="g5309"
         style="fill:#ffe680;stroke:#d45500" />
      <g
         id="g5311"
         style="fill:#ffe680;stroke:#d45500" />
    </g>
  </g>
</svg>
